<?xml version="1.0" encoding="utf-8"?>
<!-- Generator: Adobe Illustrator 20.1.0, SVG Export Plug-In . SVG Version: 6.00 Build 0)  -->
<svg version="1.1" id="Calque_1" xmlns="http://www.w3.org/2000/svg" xmlns:xlink="http://www.w3.org/1999/xlink" x="0px" y="0px"
	 viewBox="0 0 432 432" style="enable-background:new 0 0 432 432;" xml:space="preserve">
<style type="text/css">
	.st0{fill:#008D36;}
	.st1{fill:#D82116;}
	.st2{fill-rule:evenodd;clip-rule:evenodd;fill:#CC7B26;}
	.st3{fill:#CC7B26;}
	.st4{fill:#E30613;}
	.st5{fill:#36A9E1;}
	.st6{fill:#020203;}
	.st7{fill:#2FAC66;}
	.st8{fill:#432918;}
	.st9{fill:#CF7913;}
	.st10{fill:#D0A556;}
	.st11{fill:#1D71B8;}
	.st12{fill:#D60B52;}
	.st13{fill-rule:evenodd;clip-rule:evenodd;fill:#36A9E1;}
	.st14{fill:#D48C41;}
	.st15{fill:#FFFFFF;}
	.st16{fill:#00A19A;}
	.st17{fill:#95C11F;}
</style>
<g>
	<g>
		<path class="st3" d="M316.3,224.4c-0.5-1.4-1.7-3.5-1.7-5c0-1.7,1.3-4.2,1.9-5.8c1.3-4.1,2.6-8.1,3.9-12.2c1.9-6,3.9-12,5.8-18
			c-24.6,0.1-49.2,0.3-73.7,0.4c-39.1,0.2-78.3,0.5-117.4,0.7c-8.9,0.1-17.9,0.1-26.8,0.2c2.2,5.8,4.3,11.6,6.5,17.4
			c1.5,4.1,3,8.2,4.6,12.3c0.7,1.9,2.6,5,2.6,7.1c0,1.2-1.1,3-1.5,4.1c-1.5,3.8-3,7.5-4.5,11.3c-2.4,6.1-4.8,12.3-7.3,18.4
			c24.6-0.1,49.2-0.3,73.7-0.4c39.1-0.2,78.3-0.5,117.4-0.7c8.9-0.1,17.9-0.1,26.8-0.2c-2-5.8-4-11.5-6-17.3
			C319.2,232.6,317.7,228.5,316.3,224.4z"/>
		<g>
			<path d="M129.5,130.7c-2.3-2.1-4.8-3.4-7.6-3.7c-1.2-0.2-1.8-0.8-1.9-1.9c4.8-5,8.3-9.5,10.6-13.5c2.3-4,3.7-8.1,4.2-12.2
				c0.5-5.3-1.1-9-4.8-11.3c-3.5-2.1-6.5-3.1-9-3.1c-1.8,0-3.7,0.6-5.7,1.8c-5.4,3.3-9.8,7.5-13.1,12.8c-4.4,7-7.6,14.6-9.7,23
				c-0.2,0.5-0.4,1.2-0.6,2.3c-0.2,1.1-0.7,2-1.4,2.7c-1.1-2.7-2-6.3-2.6-10.6l-1.1-5.4c-0.6-2.6-1.1-4.4-1.5-5.2
				c-0.5-1.1-1.3-1.8-2.4-2.2c-1-0.4-2.3-0.5-3.7-0.5c-1,0-1.6,0.3-1.9,1c-0.3,0.7-0.5,1.7-0.8,3.1c-0.2,0.8-0.3,1.8-0.3,2.9
				c0,1.1-0.1,2-0.1,2.6c-0.1,4,0,8.3,0.4,12.8c0.4,4.5,0.6,7.3,0.7,8.3l0.3,2.7c0.5,5.3,1.1,9.9,1.7,13.8c0.6,3.9,1.4,7.7,2.5,11.4
				c0.7,2.4,1.5,4,2.2,4.8c0.7,0.9,1.8,1.3,3.3,1.3c1.2,0,2.5-0.2,3.9-0.5c0.5-0.1,1.2-0.2,2.3-0.5c1.1-0.2,2.1-0.5,3-0.9
				c1.2-0.4,2-0.8,2.5-1.3c0.5-0.5,0.7-1.2,0.7-2c0-0.7-0.1-1.4-0.3-1.9c-0.5-2-1.7-5.6-3.4-10.9c-1.3-3.5-1.8-6.7-1.5-9.5l0.4-3.8
				c0.1-0.7,0.3-2.9,0.7-6.7c0.4-3.7,1.1-7.2,2-10.5c1.2-4.5,2.5-8.5,4-12c1.5-3.4,3.5-6.6,5.9-9.5c4-4.8,8.9-8,14.8-9.7
				c0.4-0.1,0.8-0.1,1.2-0.1c1.5,0,2.2,1,2,2.9c-0.2,1.4-0.5,2.6-0.8,3.8c-3.4,11-9,20.7-17,29.3l-3.1,2.9c-1.3,1.1-2.3,2-3.1,2.9
				c1.3,0.6,2.6,1.2,3.9,1.6c1.3,0.5,2.5,0.7,3.5,0.7c1.5,0,3-0.5,4.6-1.6c0.4-0.3,1.2-0.6,2.4-1.1c1.4-0.4,2.3-0.5,2.6-0.5
				c0.6,0,1.1,0.3,1.4,0.7c0.3,0.5,0.6,1.4,0.9,2.7c0.7,3.9,1.1,7.5,1.1,10.9c0,6.4-1.1,13-3.4,19.6c-0.2,0.5-0.4,0.8-0.6,1
				c-0.2,0.2-0.6,0.3-1,0.2c-0.6-0.5-1.1-1-1.5-1.7c-0.4-0.7-0.7-1.4-1-2.1c-0.3-0.7-0.5-1.3-0.7-1.6c-0.6-1.6-1-3.4-1-5.4
				c0-1.5,0.3-3.5,0.8-6.3c0.2-0.9,0.3-1.5,0.3-1.9c0-1-0.5-1.6-1.4-1.8c-0.4-0.1-0.8-0.1-1.4-0.1c-1.4,0-2.4,0.7-3,2.2
				c-1.8,3.8-2.7,7.3-2.7,10.3c0,1.3,0.2,2.9,0.7,4.9c1.1,3.5,2.2,5.9,3.5,7.1c1.2,1.2,3.2,1.8,6.1,1.8c1.3,0,2.3,0,3.1-0.1l1.1-0.1
				c2.8,0.1,5.2-0.5,7.3-1.8c2-1.3,3.9-3.2,5.5-5.8c2.6-4.2,3.9-8.9,3.9-14.3c0-3-0.6-6-1.9-9C133.5,135.4,131.8,132.8,129.5,130.7z
				"/>
			<path d="M216.9,120.5c0.9,0.7,1.9,1.1,3.1,1.1h0.3c0.7,0,1.2-0.2,1.5-0.7c0.3-0.5,0.5-1.1,0.5-1.9c0-1-0.3-1.9-1-2.6
				c-0.7-0.7-1.5-1.1-2.5-1.1c-1.8,0-2.8,1-3,2.9C215.6,119,216,119.8,216.9,120.5z"/>
			<path d="M357.2,129.8c-0.2-0.1-0.5-0.1-1-0.1c-0.8,0-1.5,0.4-1.9,1.2c-1.1,2.5-1.9,4.4-2.3,5.7c-1.5,4.4-3.6,8.9-6.4,13.4
				c-2.8,4.5-6.2,7.3-10.1,8.4c-1.5,0.5-2.7-1-3.5-4.4c-0.6-2.9-1-5.4-1-7.3c0-1.2,0.2-1.9,0.7-2.2c0.5-0.3,1.5-0.6,3.1-0.7
				c4.8-0.5,8.1-3.3,9.8-8.4c0.8-2.2,1.2-4.4,1.2-6.7c0-3.5-1-5.8-3-6.8c-3.3-1.7-6.2-2.6-8.7-2.6c-2.3,0-4.5,0.6-6.7,1.9
				c-3.7,2.2-6.5,4.9-8.3,8.2c-1.5,2.6-2.3,5.2-2.6,7.8c-1.2,3.7-2.8,6.6-4.5,8.8c-1.9,2.3-4.8,3.4-8.8,3.4l0.7-3
				c1.3-5.4,2.3-9.9,3.1-13.7c0.8-3.8,1.2-7,1.2-9.7c0-4.4-0.9-7.8-2.7-10.2c-2-2.7-4.7-3.9-8.2-3.7c-1.4,0.2-2.4,0.7-3.1,1.7
				c-0.7,1-1.2,2.2-1.7,3.7c-1.2,4.1-1.8,8.4-1.8,12.9c0,3.7,0.5,7.3,1.4,10.9c0.5,1.9,1.4,3.9,2.7,6c1.6,2.4,2.4,4.4,2.4,5.8
				c0,1.7-1,3.8-3.1,6.3c-1-1.8-1.7-3.7-2.2-5.6c-0.5-1.9-1-4.4-1.6-7.3l-0.5-2.9c-0.6-3.4-1.8-6-3.5-7.8c-1.7-1.9-4.3-3.1-7.8-3.6
				c-0.5-0.1-1.2-0.1-2-0.1c-1.7,0-3,0.5-3.7,1.4c-0.8,0.9-1.1,2.5-1,4.9c0,0.6,0.1,1.2,0.1,1.8c-1.4,4.3-3.5,8.6-6.2,13
				c-2.8,4.5-6.2,7.3-10.1,8.4c-1.5,0.5-2.7-1-3.5-4.4c-0.6-2.9-1-5.4-1-7.3c0-1.2,0.2-1.9,0.7-2.2c0.5-0.3,1.5-0.6,3.1-0.7
				c4.8-0.5,8.1-3.3,9.8-8.4c0.8-2.2,1.2-4.4,1.2-6.7c0-3.5-1-5.8-3-6.8c-3.3-1.7-6.2-2.6-8.7-2.6c-2.3,0-4.5,0.6-6.7,1.9
				c-3.7,2.2-6.5,4.9-8.3,8.2c-1.5,2.6-2.3,5.2-2.6,7.8c-1.4,4.2-3.2,8.3-5.3,12.3c-2.2,4.1-4.3,6.2-6.4,6.2c-0.6-0.5-1-0.8-1.1-1.1
				c-0.1-0.3-0.1-0.7-0.1-1.2c-0.1-1.1-0.1-2.8-0.1-5c0-3.1,0.1-6.1,0.4-9.1c0.2-2.4,0.3-3.8,0.3-4.4c0-2-0.6-3.3-1.7-4
				c-1.1-0.7-3.5-1.2-7-1.6c-0.5-0.1-1-0.1-1.8-0.1c-0.9,0-1.5,0.2-1.9,0.7c-0.4,0.5-0.7,1.3-1.1,2.6c-0.1,0.4-0.2,0.8-0.3,1.2
				c-0.5,1.3-1,2.4-1.2,3.1c-0.3,0.7-1.2,3.5-2.7,8.4c-1.5,4.9-3.3,9.4-5.4,13.5c-2.1,4.1-4,6.4-5.9,6.9c-0.9-0.1-1.5-0.4-1.6-1
				c-1.2-3.8-1.9-7.6-2.2-11.5c-0.3-3.9-0.5-8.5-0.5-13.9v-4.8c0-0.5,0.2-1,0.7-1.3c0.5-0.3,0.8-0.5,1-0.6c8-5.7,12.5-14.4,13.6-26
				c0.4-4.7-2.5-8.3-8.7-10.6c-1.9-0.6-3.4-1-4.6-1c-2.6,0-5.1,1.3-7.3,3.8c-1.8,2-3.5,4.8-5.2,8.4c-3.4,8.4-5.2,17.5-5.2,27.3
				c0,0.9,0,1.9,0,2.8c-1.4,4.2-3.5,8.5-6.2,12.8c-2.8,4.5-6.2,7.3-10.1,8.4c-1.5,0.5-2.7-1-3.5-4.4c-0.6-2.9-1-5.4-1-7.3
				c0-1.2,0.2-1.9,0.7-2.2c0.5-0.3,1.5-0.6,3.1-0.7c4.8-0.5,8.1-3.3,9.8-8.4c0.8-2.2,1.2-4.4,1.2-6.7c0-3.5-1-5.8-3-6.8
				c-3.3-1.7-6.2-2.6-8.7-2.6c-2.3,0-4.5,0.6-6.7,1.9c-3.7,2.2-6.5,4.9-8.3,8.2c-1.8,3.3-2.7,6.5-2.7,9.7c0,4,0.8,7.8,2.3,11.4
				c1.5,3.6,3.6,6.5,6.2,8.7c2.6,2.2,5.4,3.3,8.4,3.3c1.2,0,2.3-0.2,3.4-0.5c3.9-1.1,7.6-3.9,11.1-8.4c1.8-2.4,3.4-4.7,4.7-6.9
				c0.4,3.3,1.1,6.6,1.9,10c0.9,3.7,1.9,6.5,3.1,8.3c1.1,1.8,2.7,3,4.8,3.7c2.1,0.6,5.1,1,9,1c3.5,0,6.6-2.4,9.1-7.2
				c1.7-3.3,3.4-7.1,5-11.4c0.1,1.1,0.2,2.1,0.3,3.2c0.3,3.1,1.9,5.1,5,6.1c2.4,0.9,4.8,1.4,6.9,1.4c1.2,0,2.3-0.1,3.4-0.4
				c3.5-0.8,6.5-3.2,8.8-7c1.4-2.2,2.7-4.7,3.9-7.4c0.3,1.2,0.7,2.4,1.2,3.6c1.5,3.6,3.6,6.5,6.2,8.7c2.6,2.2,5.4,3.3,8.4,3.3
				c1.2,0,2.3-0.2,3.4-0.5c3.9-1.1,7.6-3.9,11.1-8.4c1.9-2.5,3.6-4.9,4.9-7.3c0.4,2.7,0.8,5.3,1.4,7.6c1.3,5.4,3,9,5.1,11.1
				c2.1,2,5.4,3.1,9.9,3.1c0.8,0,2.3-0.1,4.5-0.3c1.5-0.2,2.6-0.6,3.4-1.2c0.8-0.6,1.4-1.5,1.8-2.8l1.6-5.3c0.7-2.4,1.2-4.1,1.5-5.3
				c5.5,0,9.6-1.1,12.2-3.3c1.2-1,2.3-2.3,3.3-3.6c0.4,1.5,0.8,2.9,1.4,4.3c1.5,3.6,3.6,6.5,6.2,8.7c2.6,2.2,5.4,3.3,8.4,3.3
				c1.2,0,2.3-0.2,3.4-0.5c3.9-1.1,7.6-3.9,11.1-8.4c3.5-4.5,6.1-8.8,7.7-12.8c1.2-3,2.1-5.7,2.9-8c0.1-0.2,0.1-0.5,0.1-1
				C358.5,130.7,358.1,130.1,357.2,129.8z M331.6,136.3c0.9-5,1.5-8.2,1.9-9.7c0.4-1.5,1-2.6,2-3.5c1-0.9,1.9-1.4,2.8-1.4
				c1,0,1.9,0.6,2.8,1.8c0.9,1.2,1.3,2.7,1.3,4.3c0,3.7-1.3,7.3-3.8,10.7c-0.8,1-1.7,1.7-2.6,2c-0.9,0.5-1.7,0.8-2.4,0.8
				C332.1,141.5,331.5,139.8,331.6,136.3z M251.6,136.3c0.9-5,1.5-8.2,1.9-9.7c0.4-1.5,1-2.6,2-3.5c1-0.9,1.9-1.4,2.8-1.4
				c1,0,1.9,0.6,2.8,1.8c0.9,1.2,1.3,2.7,1.3,4.3c0,3.7-1.3,7.3-3.8,10.7c-0.8,1-1.7,1.7-2.6,2c-0.9,0.5-1.7,0.8-2.4,0.8
				C252.2,141.5,251.5,139.8,251.6,136.3z M195.3,103.1c0.4-1,0.6-1.6,0.8-1.8c0.5-0.9,0.9-1.6,1.3-2c0.4-0.4,1-0.6,1.8-0.6
				c0.6,0,1.1,0.2,1.5,0.5c0.4,0.4,0.7,0.8,0.9,1.2c0.2,0.5,0.4,0.8,0.5,1c1.2,2.4,1.6,4.7,1.4,6.9c-1.4,7.7-4.8,14.6-10.3,20.5
				c-0.5,0.4-1.2,0.4-1.9,0.1C191,119.5,192.4,110.8,195.3,103.1z M155.3,136.3c0.9-5,1.5-8.2,1.9-9.7c0.4-1.5,1-2.6,2-3.5
				c1-0.9,1.9-1.4,2.8-1.4c1,0,1.9,0.6,2.8,1.8c0.9,1.2,1.3,2.7,1.3,4.3c0,3.7-1.3,7.3-3.8,10.7c-0.8,1-1.7,1.7-2.6,2
				c-0.9,0.5-1.7,0.8-2.4,0.8C155.8,141.5,155.2,139.8,155.3,136.3z M301.3,131.8c-0.7,4.1-1.5,7.1-2.5,8.9
				c-1.7-4.4-2.6-8.8-2.6-13.2c0-4.5,0.9-9.7,2.7-15.6c1.2,0.5,1.9,1.2,2.3,1.8c0.4,0.7,0.6,1.7,0.8,2.9c0.2,1.5,0.3,2.7,0.3,3.8
				C302.4,123.8,302,127.6,301.3,131.8z"/>
		</g>
		<g>
			<path d="M279.2,267.4c0.9,0.7,1.9,1.1,3.1,1.1l0.3,0c0.7,0,1.2-0.2,1.5-0.7c0.3-0.5,0.5-1.1,0.6-1.9c0-1-0.3-1.9-1-2.6
				c-0.7-0.7-1.5-1.1-2.5-1.1c-1.8,0-2.8,0.9-3,2.8C278,265.9,278.3,266.7,279.2,267.4z"/>
			<path d="M340.5,277.3c-0.2-0.1-0.5-0.1-1-0.1c-0.8,0-1.5,0.4-1.9,1.2c-1.1,2.5-1.9,4.4-2.4,5.7c-0.9,2.7-2.3,5.8-4.2,9.2
				c-1.9,3.4-3.9,6.4-6.1,8.8c-2.2,2.5-4.3,3.7-6.2,3.7c-2.1,0-3.7-1.5-5-4.5c-0.6-1.5-0.9-3.5-0.9-5.9c0-1.6,0.4-4.7,1-9.1l0.7-4.2
				c0.8-4.6,1.8-8.1,3.1-10.4c1-1.5,1.9-2.3,2.7-2.3c1.4,0,2.3,1,2.7,2.9c0.2,0.8,0.3,1.6,0.4,2.4c0.1,0.8,0.2,1.6,0.4,2.4
				c0.1,0.5,0.3,0.7,0.7,0.8c0.4,0.1,0.7,0,1.1-0.4c1.1-1,1.7-2.3,1.7-4.1c0-0.9-0.2-1.8-0.6-2.7c-0.4-0.9-1-1.5-1.7-1.9
				c-3.6-1.9-6.9-2.8-9.8-2.8c-4.5,0-8.3,2-11.4,6.3c-2.3,3.1-3.8,6.6-4.6,10.3c-0.2,0.4-0.3,0.7-0.4,1c-1.5,4.3-3.4,8.6-5.6,12.7
				c-2.2,4.1-4.4,6.1-6.5,6.1c-0.6-0.5-1-0.8-1.1-1.1c-0.1-0.3-0.1-0.7-0.1-1.2c-0.1-1.1-0.1-2.8-0.1-5c0-3.1,0.2-6.1,0.5-9.1
				c0.2-2.4,0.3-3.8,0.3-4.4c0-2-0.5-3.3-1.7-4c-1.1-0.7-3.5-1.2-7-1.6c-0.5-0.1-1-0.1-1.8-0.2c-0.9,0-1.5,0.2-1.9,0.7
				c-0.4,0.5-0.7,1.3-1.1,2.6c-0.1,0.4-0.2,0.8-0.3,1.2c-0.5,1.3-1,2.3-1.3,3.1c-1.2,3.4-2.8,6.8-4.7,10.2c-1.9,3.3-4,5.6-6.1,6.7
				c0-2.6-0.1-6.3-0.3-11c-0.2-4.7-0.5-8.8-0.8-12.1c-0.3-3.3-0.7-5.8-1.1-7.5c-0.3-1.5-1.3-2.6-2.8-3.6c-1.5-0.9-3.2-1.4-5.1-1.4
				c-1.1,0-1.9,0.3-2.5,1c-0.6,0.7-1.2,1.9-1.9,3.7c-0.2,0.6-0.4,1.4-0.6,2.2c-0.2,0.9-0.4,1.6-0.7,2.3c-0.3,0.7-0.7,1.3-1.2,1.8
				c-3.5-3.2-8.1-4.8-13.8-4.9c-5.1-0.1-8.8,2.1-11.2,6.5c-1.7,3.1-2.6,6.5-2.8,10c-1.2,3-2.5,6.2-4.1,9.7c-2.5,5.3-4.3,7.9-5.5,7.9
				c-0.6-1.5-1-2.8-1.1-4.1c-0.1-1.3-0.2-3-0.1-5.2l1.1-22.8c0.2-2.4,0.1-4.5-0.3-6.1c-0.8-2.7-3-4.1-6.6-4.2
				c-1.4,0-2.4,0.2-3.1,0.8c-0.7,0.5-1.3,1.5-1.7,3c-0.4,1.4-0.9,3.6-1.4,6.7c-0.8-0.1-1.5-0.4-2-1c-0.5-0.5-0.9-0.9-1.1-1.1
				c-2.3-1.6-5.1-2.4-8.1-2.4c-3,0-5.5,0.7-7.6,2.1c-2.7,1.9-5,4.8-6.8,8.7c-1.4,3-2.3,6-2.6,8.9c-1.6,3.9-3.5,7.8-5.7,11.9
				c-3.4,6.2-6.4,9-8.9,8.5c-0.1-0.3-0.1-0.6-0.1-1.1c0-0.6,0.1-1.3,0.3-2c0.2-0.7,0.3-1.3,0.4-1.6c1.9-6.4,3.3-12.9,4.3-19.5
				c0.3-1.4,0.4-2.5,0.4-3.5c0-1.8-0.5-3.2-1.5-4.2c-1-1-2.7-2-5.3-3l-0.8-0.4c-0.8-0.6-1.6-0.8-2.3-0.8c-1.2,0-2.4,0.7-3.6,2
				l-8.1,9.8c-0.1,0.2-0.3,0.5-0.6,0.8c-0.3,0.4-0.6,0.6-0.9,0.7c-0.3,0.1-0.7,0.2-1.2,0.1l-0.4-1.4c-0.1-2.8-0.7-4.9-1.8-6.2
				c-1.2-1.3-3.1-2.4-5.8-3.1l-0.8-0.1c-0.8,0-1.5,0.4-2.1,1.2l-2.6,4.1c-3.1,6-5.3,10-6.5,11.9c-0.1,0.1-0.2,0.4-0.3,0.9
				c-0.1,0.5-0.4,0.8-0.8,1c-0.4,0.2-0.8,0.2-1.4,0l-0.5-12.4c-0.1-3.6-1.8-5.9-5.4-6.7c-0.6-0.1-1.2-0.2-1.6-0.4
				c-0.5-0.2-0.9-0.3-1.2-0.4c-0.5-0.2-1.3-0.3-2.2-0.3c-0.8,0-1.5,0.2-1.9,0.7c-0.5,0.5-0.9,1.3-1.4,2.6c-0.8,2.4-1.3,5.7-1.3,9.8
				c0,2.4,0.1,4.8,0.5,7.4c0.8,5.9,3.9,9.2,9.3,9.8c1.3,0.2,2.2,0.4,2.9,0.7c0.7,0.3,1.4,0.4,1.9,0.4c1.4,0,2.4-0.7,3.2-2.3
				c2.5-4.5,4.7-9.1,6.5-13.7c0.1-0.2,0.2-0.5,0.4-1c0.1-0.5,0.4-0.9,0.7-1.3c0.3-0.4,0.8-0.6,1.3-0.8c0.1,2.4,0.7,4.4,2,5.8
				c1.3,1.4,3.2,2.4,5.6,3c0.5,0.2,1,0.3,1.8,0.3c1.2,0,2.2-0.5,3-1.6c0.6-0.6,1.5-1.9,2.9-3.9l2.5-3.2c0.4-0.4,1-1.3,1.9-2.4
				c0.9-1.2,1.9-2.1,3-2.8c0.1,0.3,0.1,0.7,0.1,1.2c0,0.5-0.1,1.1-0.3,1.6c-0.2,0.5-0.3,0.9-0.4,1.1c-2.5,7.1-3.7,14-3.5,20.6
				c0.1,2.7,0.7,4.7,1.8,6.1c1.2,1.3,3.1,2.2,5.8,2.7c0.5,0.1,0.9,0.2,1.4,0.3c0.5,0.1,1,0.2,1.4,0.3c1.2,0.3,2.5,0,4-0.8
				c1.5-0.8,2.6-1.7,3.6-2.8c2.5-2.8,5-6.7,7.7-11.6c0.5-1,1-2,1.5-3c0.8,2.1,2,3.7,3.7,4.6c1.5,0.8,3.2,1.3,4.9,1.3
				c1.8,0,3.6-0.4,5.3-1.2c1.7-0.8,3.1-2,4.2-3.4c1.2-1.6,2.5-3.6,3.9-6.1c0.4-0.4,0.7-0.9,0.9-1.3c0.2-0.4,0.4-0.7,0.6-1
				c0.1-0.2,0.3-0.5,0.5-1c0.2-0.5,0.8-0.8,1.7-1c0,0.9,0,2,0,3.3c0,1.3,0,2.9-0.1,4.7c0,2.5,0.3,5.4,1,8.4c0.6,2.5,1.8,4.2,3.6,5.3
				c1.3,0.8,2.8,1.3,4.7,1.3c0.8,0,1.9-0.1,3.1-0.2c1.3-0.2,2.4-0.3,3.3-0.4c2.8-1.4,5.2-3.9,7.2-7.5c1.1-2,2.2-4.2,3.4-6.7
				c1.1,2.3,2.9,3.7,5.4,4.3c2.4,0.7,4.3,1,6,1c2.7,0,5-1,6.7-3.1c2.4-2.7,4.5-5.8,6.4-9.3c0.1-0.3,0.3-0.7,0.6-1.3
				c0.3-0.6,0.6-1.1,1-1.6c0.4-0.4,0.9-0.9,1.6-1.2l0.2,3l1,17.6l0,0.3c0,0.6-0.2,1.2-0.5,1.6c-0.3,0.4-0.9,1-1.7,1.7
				c-2.8,2.5-5.3,5.2-7.3,8.1c-1.6,2.5-2.4,5.4-2.4,8.5c0,3.2,0.7,5.9,2.2,8.2c1.3,1.8,2.8,2.9,4.5,3.3c0.5,0.1,1.1,0.1,2,0.2
				c2.6,0,5.2-0.7,7.6-2.1c2.5-1.4,4.3-3.3,5.5-5.5c1.6-2.8,2.6-6.3,3.1-10.4c0.1-0.7,0.3-2.3,0.7-4.7c0.3-2.4,0.5-5.1,0.6-8.2
				c4-2.1,7.6-5.7,10.8-11c0,1.9,0.1,3.8,0.3,5.7c0.2,3.1,1.9,5.1,5,6.2c2.4,0.9,4.7,1.4,6.9,1.4c1.2,0,2.3-0.1,3.4-0.4
				c3.5-0.8,6.5-3.1,8.9-6.9c1.2-1.9,2.3-4,3.5-6.2c0.4,2,1.1,4.3,2.1,6.9c1.2,3.2,2.7,5.3,4.3,6.3c3.3,2.2,6.6,3.3,9.8,3.4
				c5.2,0.1,9.7-2.3,13.7-7c3.9-4.7,7.2-10.2,9.8-16.4c1.2-3,2.2-5.6,2.9-8c0.1-0.2,0.1-0.5,0.1-1
				C341.8,278.3,341.4,277.7,340.5,277.3z M189.1,282.7c-2.6,4.7-5.4,8.7-8.3,12.2c-0.2,0.2-0.6,0.6-1.1,1.2
				c-0.6,0.6-1.1,1.2-1.8,1.6c-0.6,0.4-1.4,0.8-2.2,0.9c-0.4-2.9-0.6-5.4-0.6-7.6c0.1-6.3,1.7-11.9,4.9-16.8
				c1.3-2.1,2.5-3.1,3.6-3.1c1.1,0,2.5,0.9,4.2,2.6c1.1,1,1.8,1.9,2.3,2.5c0.4,0.7,0.7,1.3,0.7,2
				C190.8,279.3,190.2,280.8,189.1,282.7z M239.6,285c-1.9,3.5-3.6,6.1-5,7.6c-1.4,1.6-3.3,3.1-5.6,4.5c-0.9-1.9-1.3-4-1.3-6.4
				c0-1.3,0.2-3.2,0.6-5.7c0.7-4,2-7,3.9-9.1c1.3-1.3,2.3-2,3.2-2c0.9,0,1.9,0.6,3.1,1.8c1.8,1.7,2.7,3.3,2.7,4.8
				C241.1,281.7,240.6,283.2,239.6,285z M244,331.2c-0.2,1.2-0.6,1.9-1.1,2l-0.4,0c-0.5,0-0.9-0.2-1.2-0.6c-0.4-0.4-0.6-0.7-0.7-0.8
				c-1.6-2-2.4-4.5-2.4-7.5c-0.1-2.4,0.7-4.8,2.3-7.3c1.6-2.5,3.4-4.2,5.5-5c0.2,2,0.2,3.5,0.2,4.4
				C246.1,320.8,245.4,325.7,244,331.2z"/>
		</g>
		<g>
			<path class="st15" d="M154.9,231.2c-0.1-2.8-0.2-5.6-0.4-8.4c0-1.8,0.1-3.6,0.2-5.4c0.1-1.8,0.2-3.6,0.3-5.4l0.1-0.2
				c0.1-1.4,0.2-2.9,0.3-4.4c0-1.5,0.1-3,0.3-4.5c0-0.5,0-1.1,0.1-1.5c0-0.5,0.1-1,0.2-1.5c0-0.7-0.4-1.2-1.2-1.5
				c-0.5-0.1-1.1-0.1-1.8-0.2c-0.6,0-1.2,0-1.8,0.2c-0.7,0.1-1.2,0.5-1.3,1.1c-0.1,0.3-0.2,0.6-0.3,0.9c-0.1,0.2-0.1,0.5-0.1,0.8
				c-0.1,0.8-0.2,1.6-0.3,2.4c0,0.8-0.1,1.6-0.3,2.4c-0.3,3.2-0.6,6.4-0.9,9.6s-0.3,6.4,0,9.7c0.1,1.2,0.2,2.4,0.2,3.7
				c0,1.2,0,2.4,0.1,3.6c0.1,1.1,0.2,2.2,0.3,3.2c0.1,1.1,0.2,2.1,0.4,3.2c0.1,1,0.3,1.9,0.4,2.8c0.1,1,0.3,1.9,0.5,3
				c0.2,0.8,0.5,1.8,0.8,2.8c0.1,0.6,0.5,1,1.1,1.1c1.3,0.3,2.6,0.4,3.9,0.2c0.3-0.1,0.6-0.2,0.7-0.4c0.1-0.2,0.2-0.4,0.2-0.6v-0.6
				c-0.2-2.6-0.5-5.1-0.9-7.4C155.2,236.8,155,234,154.9,231.2z"/>
			<path class="st15" d="M192.9,192.4c-0.7-0.3-1.6-0.3-2.4-0.1c-0.5,0.2-0.8,0.6-0.9,1.1c-0.2,1.2-0.4,2.3-0.7,3.4
				c-0.2,1.1-0.4,2.2-0.6,3.4c-0.3,2.6-0.6,5.2-0.9,7.8c-0.2,2.6-0.4,5.3-0.6,7.9c-0.1,2.5-0.3,5-0.5,7.5c-0.2,2.5-0.4,5-0.6,7.5
				c0,0.1,0,0.1-0.1,0.2c0,0-0.1,0.1-0.1,0.2c-0.1-0.1-0.1-0.1-0.2-0.1c0,0-0.1,0-0.2-0.1v-0.2c-2.1-6.2-4.4-12.6-7-19
				c-1-2.4-1.9-4.8-3-7.1s-2-4.8-3-7.2l-0.6-1.5c-0.1-0.1-0.3-0.3-0.4-0.5s-0.2-0.4-0.4-0.5c-0.4-0.4-0.7-0.8-0.9-1.3
				c-0.1-0.4-0.5-0.7-1-0.8c-0.7-0.1-1.2-0.2-1.5-0.2c-1,0.1-1.7,0.3-2.2,0.6c-0.4,0.3-0.7,1-0.9,1.9v0.3c-0.1,1.6-0.3,3.1-0.5,4.7
				c-0.2,1.6-0.3,3.2-0.5,4.7c-0.1,2-0.2,4.1-0.2,6.1c0,2,0,4.1-0.1,6.1h0.1v6.7c0,0.5,0,0.9,0,1.4c0,0.4,0,0.9,0.1,1.4
				c0.1,1.8,0.3,3.7,0.4,5.5c0.1,1.8,0.3,3.7,0.5,5.5c0.2,1.8,0.4,3.5,0.7,5.2c0.3,1.7,0.6,3.4,0.9,5.2c0.1,0.5,0.3,0.9,0.4,1.1
				c0.5,0.7,1.2,1.3,2,1.5c0.8,0.3,1.6,0.3,2.4,0.1c0.5-0.1,0.8-0.4,1-0.9c0.5-1,0.6-1.9,0.4-2.6c-0.1-0.3-0.1-0.5-0.2-0.8
				c0-0.3-0.1-0.6-0.2-0.9l-1.2-8.6c-0.1-0.7-0.2-1.4-0.2-2c0-0.7,0-1.4-0.1-2c-0.1-1.7-0.3-3.4-0.4-5c-0.1-1.7-0.2-3.3-0.2-5
				c0-1,0-1.9-0.1-2.9c0-1-0.1-2-0.1-2.9c0-2,0-4,0.1-6c0-2,0.1-4,0.2-6c0-0.3,0-0.6,0.1-0.9c0.1-0.3,0.1-0.6,0.2-0.9
				c0.3,0.1,0.5,0.4,0.6,0.7c0,0.3,0.1,0.6,0.3,0.9c0.3,0.7,0.6,1.5,0.9,2.1c0.3,0.7,0.5,1.4,0.8,2.1c0.9,2.4,1.8,4.8,2.7,7.2
				c0.8,2.4,1.7,4.8,2.7,7.2c0.7,2,1.5,4.1,2.2,6.1c0.7,2,1.4,4.1,2,6.2c0.3,1.2,0.8,2.4,1.3,3.6c0.5,1.2,1,2.3,1.5,3.5
				c0.4,0.9,1.1,1.3,2,1.3c0.2,0,0.4,0,0.7,0c0.2,0,0.5,0,0.7-0.1c0.7-0.2,1.1-0.7,1.1-1.4v-3.1v-7.9c0-0.5,0-1.1,0.1-1.5
				s0.1-1,0.2-1.4c0.2-2.2,0.4-4.3,0.6-6.4c0.2-2.1,0.3-4.2,0.4-6.4c0-2.1,0.1-4.2,0.3-6.4c0.2-2.6,0.5-5.3,0.9-7.9
				c0.2-1.3,0.4-2.6,0.7-3.8c0.3-1.3,0.5-2.5,0.8-3.8C193.6,193,193.4,192.5,192.9,192.4z"/>
			<path class="st15" d="M230.5,187.9c-0.5-0.3-1.2-0.5-2-0.5c-0.8-0.1-1.6-0.1-2.4,0.1c-0.8,0.1-1.6,0.2-2.4,0.4
				c-0.7,0.1-1.2,0.2-1.5,0.2c-1,0.1-2,0.1-3.1,0.2s-2,0.1-3.1,0.1c-1.4,0-2.8,0.1-4.2,0.4c-1.4,0.2-2.8,0.5-4.1,0.9
				c-0.3,0.1-0.8,0.2-1.5,0.5c-0.5,0.3-0.8,0.6-0.8,0.9c0,0.3,0.1,0.5,0.3,0.6c0.2,0.1,0.4,0.1,0.6,0.2c0.4,0.1,0.8,0.2,1.2,0.2
				c0.4,0,0.8-0.1,1.2-0.2l4-0.6c0.5-0.1,0.6,0,0.5,0.5l0.2,16.8c0.1,1.4,0.1,2.7,0.2,4c0.1,1.3,0.1,2.6,0.2,4
				c0.1,1.4,0.1,2.8,0.1,4.3s0,2.8,0.1,4.3l0.9,18c0.1,2.2,0.5,4.2,1,6c0.5,1.5,1.5,2.3,3,2.3c0.3,0,0.8-0.1,1.5-0.2
				c1.1-0.3,1.7-0.9,1.7-2v-0.9c-0.3-2-0.5-4.1-0.6-6.2c0-2.1-0.1-4.1-0.2-6.2c-0.1-3.2-0.2-6.3-0.3-9.5c0-3.1-0.1-6.3-0.2-9.5
				c0-0.7,0-1.5-0.1-2.3c0-0.8-0.1-1.5-0.2-2.3l-0.3-6.4c-0.1-2.4-0.2-4.9-0.2-7.3c0-2.4-0.1-4.9-0.5-7.3c-0.1-0.4,0-0.6,0.5-0.6
				h1.2c0.6-0.1,1.2-0.1,1.8-0.1c0.6,0,1.2-0.1,1.8-0.2c0.7-0.1,1.3-0.3,2-0.4c0.6-0.1,1.3-0.2,2.1-0.3c0.3,0,0.7-0.1,1.2-0.4
				c0.3-0.1,0.4-0.3,0.4-0.6C230.9,188.3,230.8,188.1,230.5,187.9z"/>
			<path class="st15" d="M259.8,244.4c-1.2-5.2-1.7-10.4-1.7-15.5c0-1.2,0-2.4,0-3.7s0-2.4-0.1-3.7c-0.1-3.1-0.1-6.2-0.2-9.3
				c-0.1-3.1-0.2-6.2-0.3-9.3c-0.1-1.3-0.1-2.6-0.2-3.8c-0.1-1.3-0.2-2.5-0.3-3.8c0-0.6-0.1-1.2-0.3-1.8c-0.1-0.3-0.3-0.5-0.5-0.8
				c-0.4-0.3-0.9-0.5-1.5-0.5c-0.3,0-0.7,0.1-1.2,0.2c-0.4,0.1-0.7,0.4-0.8,0.7c-0.1,0.3-0.2,0.7-0.3,1.1c-0.1,0.7-0.2,1.2-0.2,1.5
				c-0.1,1.1-0.1,2.2-0.2,3.2c-0.1,1.1-0.1,2.1-0.2,3.2c-0.1,1.7-0.1,3.4-0.1,5s0,3.3,0,5v1.2c0,0.4-0.2,0.7-0.5,0.8
				c-0.7,0.3-1.2,0.4-1.5,0.5c-0.7,0.1-1.3,0.3-2,0.4c-0.6,0.1-1.3,0.2-2,0.4c-1.2,0.2-2.3,0.4-3.4,0.6c-1.1,0.2-2.2,0.4-3.3,0.8
				c-0.3,0.1-0.5,0.1-0.6,0.2c-0.1,0-0.3,0.1-0.4,0.1c-0.3,0-0.4-0.4-0.4-1.2l-0.3-11.6V203c0-0.7-0.3-1.1-1-1.3
				c-0.3-0.1-0.8-0.2-1.5-0.2c-0.5,0-1,0-1.2,0.1c-0.9,0.2-1.4,0.7-1.6,1.6l-0.3,1.5c-0.2,1.7-0.3,3.4-0.4,5c-0.1,1.7-0.1,3.3-0.1,5
				v3c0,0.7,0,1.3,0.1,1.9s0.1,1.1,0.1,1.5v1.2c0,1.6,0.1,2.8,0.2,3.8c0.1,1,0.2,2.2,0.3,3.5c0.1,1.6,0.1,3.3,0.2,4.9
				c0.1,1.6,0.2,3.3,0.4,4.9c0.2,1.9,0.6,3.7,1.3,5.3c0.3,0.7,0.7,1.2,1.2,1.3c0.6,0.2,1.2,0.3,1.8,0.3c0.8,0,1.5-0.1,2.1-0.4
				c0.5-0.2,0.7-0.5,0.7-0.9v-0.3c-0.3-1.2-0.4-2.3-0.5-3.4c-0.1-1.1-0.1-2.2-0.2-3.4l-0.6-10.1l-0.3-7c0-0.7,0.3-1.2,0.8-1.4
				c1.5-0.9,3-1.5,4.6-1.7l7.6-1.5h0.3c0.3,0,0.5,0.1,0.5,0.3v0.9c0,1.7,0,3.4-0.1,5c0,1.7-0.1,3.3-0.1,5c0,2.4,0.1,4.7,0.3,7.1
				c0.2,2.3,0.5,4.7,1,7.1c0.5,2.4,1.2,4.9,2.1,7.4c0.4,1,1.2,1.6,2.3,1.7h1.2c0.7-0.1,1.3-0.3,1.5-0.6c0.3-0.3,0.4-0.8,0.4-1.6
				c0-0.7-0.1-1.5-0.2-2.2C260.1,245.9,260,245.2,259.8,244.4z"/>
			<path class="st15" d="M285.9,190.1c-1.4-0.3-2.7-0.3-4,0c-2.2,0.6-4.3,1-6.5,1.2h-0.6c-0.4,0.1-0.8,0.2-1.1,0.4
				c-0.3,0.2-0.6,0.4-0.8,0.7c-0.2,0.2-0.3,0.4-0.3,0.7c0,0.2,0,0.5,0,0.8c0,0.2-0.1,0.5-0.2,0.9l-2.1,9.8c-0.4,1.6-0.8,3.3-1.2,4.9
				c-0.4,1.6-0.7,3.3-0.9,5l-0.9,8.9c-0.1,2.2-0.3,4.5-0.4,6.7c-0.1,2.2-0.3,4.5-0.5,6.7l0.3,0.6v3.4c0,1.3,0.3,2.4,0.8,3.3
				c0.2,0.3,0.3,0.7,0.3,1.1c0,0.6,0.3,1.1,1,1.4c0.9,0.5,1.8,0.9,2.7,1c0.9,0.1,1.9,0.2,2.8,0.1c0.9-0.1,1.7-0.1,2.6-0.2
				c0.8-0.1,1.7-0.2,2.6-0.3c0.7-0.1,1.5-0.4,2.1-0.7c0.7-0.3,1.3-0.7,1.9-1.2c0.5-0.3,0.6-0.5,0.5-0.8c-0.1-0.3-0.3-0.5-0.7-0.6
				c-0.1-0.1-0.4-0.1-0.8-0.1c-0.5-0.1-0.9,0-1.3,0.2c-0.4,0.2-0.8,0.4-1.1,0.6c-0.7,0.4-1.5,0.6-2.2,0.7c-0.7,0.1-1.5,0.1-2.2,0.1
				c-0.3,0-0.5-0.1-0.6-0.4c-0.4-0.8-0.8-1.6-1.1-2.4c-0.3-0.8-0.5-1.7-0.5-2.6c-0.1-2.5-0.1-5.1,0-7.6c0-3.5,0.1-6.9,0.3-10.4
				c0.1-1.4,0.2-2.9,0.3-4.3c0.1-1.4,0.2-2.8,0.4-4.3c0.1-0.5,0.4-0.8,0.9-0.9c1-0.1,1.9-0.3,2.9-0.5c1-0.2,1.9-0.4,2.9-0.7
				c0.3-0.1,0.7-0.2,1.2-0.5c0.2-0.1,0.3-0.3,0.3-0.5c0-0.2-0.1-0.4-0.3-0.5c-0.5-0.4-1.2-0.5-2-0.4l-3.7,0.3c-0.1,0-0.3,0-0.5,0.1
				c-0.2,0-0.3,0.1-0.5,0.1c-0.6,0.1-0.9-0.2-0.9-0.7v-0.6c0.3-1.6,0.6-3.1,0.8-4.7c0.2-1.6,0.5-3.2,0.8-4.7
				c0.1-0.7,0.3-1.5,0.4-2.3c0.1-0.8,0.3-1.5,0.4-2.3c0.1-0.5,0.4-0.7,0.8-0.8c0.7-0.1,1.5-0.3,2.3-0.4c0.8-0.1,1.5-0.3,2.3-0.4
				c0.5-0.1,1.1-0.1,1.6-0.2c0.5-0.1,1.1-0.2,1.6-0.5c0.1-0.1,0.3-0.3,0.5-0.4c0.2-0.1,0.3-0.3,0.4-0.6
				C287.1,190.6,286.7,190.3,285.9,190.1z"/>
		</g>
	</g>
	<g>
		<path class="st3" d="M55.7,195c-0.7,2.5,3,3.4,5.2,4.6c2.4,1.3,2.6,2.7,1.1,4.7c-1.4,1.9-2.7,3.9-3.9,6c-0.4,0.7-0.8,1.5-0.2,2.2
			c0.6,0.7,1.5,0.5,2.2,0.1c1.5-0.8,3.2-1.5,4.5-2.5c3.2-2.5,5.9-2.2,8.6,0.8c0.5,0.6,1.1,1.1,1.7,1.6c1,0.8,1.8,2.4,3.3,1.7
			c1.8-0.9,0.8-2.7,0.4-3.9c-1.3-4-0.3-6.6,4-7.7c1.5-0.4,2.8-1.4,4.1-2.1c0.7-0.8,1.7-1.3,1.5-2.4c-0.3-1.4-1.5-1.3-2.5-1.4
			c-2.1-0.2-4.2-0.4-6.3-0.4c-2.9,0-4.4-1.1-4.6-4.1c-0.2-2.2-0.9-4.4-1.4-6.6c-0.2-0.9-0.6-1.9-1.8-1.8c-1.1,0.1-1.4,1-1.7,2
			c-0.2,0.6-0.2,1.3-0.3,2c-1,5.9-1,5.7-6.8,6C60.2,194,56.4,192.6,55.7,195z"/>
		<path class="st3" d="M53.3,285.8c1.9-1.1,5.5-1.5,5-3.7c-0.5-2.3-3.9-1.5-6.1-1.6c-2.4,0-3.2-1.1-2.8-3.4c0.3-2.1,0.5-4.3,0.7-6.4
			c0.1-0.7,0-1.5-0.8-1.8c-0.8-0.3-1.4,0.2-1.8,0.8c-0.9,1.3-1.9,2.5-2.6,3.9c-1.5,3.4-3.9,4.2-7.2,2.9c-0.7-0.3-1.4-0.4-2.1-0.6
			c-1.1-0.3-2.5-1.2-3.4,0c-1.1,1.4,0.4,2.5,1.3,3.3c2.7,2.7,3,5.2-0.1,7.9c-1,0.9-1.7,2.3-2.5,3.4c-0.2,0.9-0.8,1.7-0.2,2.5
			c0.8,1,1.8,0.4,2.6,0.1c1.8-0.7,3.6-1.4,5.3-2.3c2.3-1.2,4-1,5.5,1.4c1.1,1.7,2.5,3.2,3.9,4.7c0.6,0.6,1.3,1.2,2.2,0.7
			c0.9-0.5,0.7-1.4,0.5-2.3c-0.1-0.6-0.3-1.2-0.5-1.7C48.7,288.4,48.7,288.5,53.3,285.8z"/>
		<path class="st3" d="M337.4,219.8c5.7-3.1,5.6-3.1,9.8,1.7c1.7,1.9,3.1,6,5.6,5c2.6-1.1,0.9-4.9,0.4-7.5c-0.5-2.9,0.5-4,3.3-4.2
			c2.6-0.1,5.2-0.4,7.7-0.7c0.8-0.1,1.8-0.3,2-1.4c0.2-1-0.6-1.6-1.4-1.9c-1.7-0.8-3.4-1.7-5.2-2.1c-4.3-1-5.9-3.6-5.2-7.8
			c0.1-0.8,0.2-1.7,0.2-2.6c0-1.4,0.8-3.2-0.8-3.9c-2-0.9-2.8,1.1-3.6,2.3c-2.6,3.8-5.4,4.8-9.3,1.9c-1.4-1-3.1-1.4-4.6-2.1
			c-1.1-0.1-2.2-0.5-3,0.4c-1,1.2-0.1,2.2,0.5,3.1c1.3,1.9,2.5,3.9,4,5.6c2,2.4,2.1,4.4-0.3,6.7c-1.7,1.7-3.1,3.8-4.6,5.7
			c-0.6,0.8-1.1,1.8-0.3,2.8c0.8,0.9,1.9,0.5,2.8,0.1C336.2,220.5,336.8,220.2,337.4,219.8z"/>
		<path class="st3" d="M386.4,251.4c-3.2,0.2-4.4-1.1-4.1-4.3c0.2-2.9,0.3-5.8,0.3-8.7c0-0.9-0.1-2-1.2-2.4
			c-1.1-0.4-1.8,0.4-2.3,1.2c-1.1,1.8-2.4,3.5-3.1,5.4c-1.7,4.7-4.8,6-9.4,4.6c-0.9-0.3-1.9-0.5-2.8-0.6c-1.5-0.3-3.4-1.4-4.5,0.2
			c-1.3,2,0.8,3.3,2,4.3c3.8,3.4,4.4,6.7,0.6,10.6c-1.3,1.3-2.1,3.2-3,4.7c-0.2,1.3-0.9,2.4,0,3.4c1.1,1.2,2.4,0.4,3.5-0.1
			c2.3-1.1,4.7-2.2,6.8-3.5c3-1.9,5.2-1.6,7.4,1.3c1.6,2.2,3.7,4,5.6,5.9c0.8,0.8,1.8,1.5,3,0.7c1.1-0.8,0.9-2,0.5-3.1
			c-0.2-0.8-0.6-1.5-0.9-2.2c-2.6-6.7-2.5-6.6,3.3-10.6c2.4-1.6,7.1-2.5,6.4-5.4C393.9,249.8,389.4,251.2,386.4,251.4z"/>
		<path class="st3" d="M360.6,324.8c-2.3-1.2-2.5-2.5-1.1-4.5c1.3-1.9,2.5-3.8,3.6-5.8c0.4-0.6,0.7-1.4,0.1-2.1
			c-0.6-0.7-1.4-0.4-2.1-0.1c-1.4,0.8-3,1.5-4.2,2.5c-3,2.5-5.6,2.2-8.2-0.6c-0.5-0.6-1.1-1.1-1.7-1.5c-0.9-0.8-1.8-2.3-3.1-1.6
			c-1.7,0.9-0.7,2.5-0.3,3.7c1.3,3.8,0.4,6.3-3.7,7.5c-1.4,0.4-2.7,1.4-3.9,2c-0.7,0.8-1.6,1.3-1.3,2.3c0.3,1.3,1.5,1.2,2.4,1.3
			c2,0.1,4,0.3,6.1,0.3c2.8-0.1,4.2,0.9,4.5,3.8c0.2,2.1,0.9,4.2,1.5,6.3c0.2,0.9,0.7,1.8,1.7,1.7c1.1-0.1,1.4-1,1.6-1.9
			c0.1-0.6,0.2-1.2,0.3-1.9c0.9-5.6,0.9-5.5,6.4-5.9c2.3-0.2,5.9,1.1,6.5-1.2C366.3,326.7,362.7,325.8,360.6,324.8z"/>
		<path class="st3" d="M94.4,253c0.6-1.2-0.3-1.8-1.1-2.5c-1.5-1.4-2.9-2.8-4.4-4c-2.2-1.6-2.6-3.3-1.1-5.7c1.1-1.8,1.9-3.8,2.7-5.7
			c0.4-0.8,0.6-1.8-0.3-2.4c-0.9-0.6-1.7-0.1-2.4,0.5c-0.5,0.4-0.9,0.8-1.4,1.2c-4.1,3.7-4.1,3.7-8.6,0.5c-1.8-1.3-3.8-4.5-5.7-3.1
			c-2,1.4,0.2,4.3,1.2,6.4c1,2.3,0.4,3.5-1.9,4.1c-2.1,0.6-4.3,1.4-6.4,2.1c-0.7,0.2-1.4,0.6-1.4,1.5c0.1,0.9,0.8,1.2,1.5,1.4
			c1.6,0.3,3.2,0.7,4.8,0.7c3.8,0,5.7,1.8,5.9,5.5c0,0.7,0.2,1.5,0.3,2.2c0.2,1.2,0,2.8,1.4,3.2c1.8,0.4,2.1-1.5,2.6-2.6
			c1.4-3.7,3.6-5,7.5-3.4c1.3,0.6,2.9,0.6,4.3,0.9C92.9,253.8,93.9,254,94.4,253z"/>
		<path class="st3" d="M197.4,347.6c-0.7-0.4-1.5-0.7-2.2-1.1c-6.6-3.2-6.4-3.1-4.8-10.1c0.6-2.8,3.5-6.8,1-8.4
			c-2.7-1.7-5.1,2.4-7.1,4.6c-2.3,2.4-4,2.2-6-0.3c-1.8-2.3-3.8-4.5-5.7-6.6c-0.6-0.7-1.4-1.4-2.5-0.9c-1.1,0.5-1.1,1.6-0.9,2.5
			c0.4,2.1,0.7,4.2,1.5,6.1c1.9,4.6,0.6,7.7-3.8,9.8c-0.9,0.4-1.7,0.9-2.5,1.5c-1.3,0.9-3.5,1.3-3.1,3.3c0.4,2.4,2.9,1.8,4.4,1.8
			c5.2-0.1,7.9,1.9,7.8,7.3c0,1.9,0.7,3.8,1,5.6c0.7,1.1,1,2.4,2.3,2.5c1.7,0.1,2.1-1.3,2.5-2.5c0.9-2.4,1.9-4.8,2.6-7.3
			c0.9-3.4,2.7-4.8,6.4-4.1c2.7,0.5,5.5,0.4,8.2,0.5c1.1,0,2.4-0.1,2.7-1.5C199.4,348.9,198.4,348.2,197.4,347.6z"/>
		<path class="st3" d="M259.4,78.6c-0.6-0.3-1.3-0.5-1.9-0.8c-5.7-2.3-5.5-2.3-4.5-8.2c0.4-2.4,2.6-5.9,0.4-7.1
			c-2.4-1.3-4.2,2.3-5.8,4.2c-1.8,2.1-3.3,2-5,0c-1.6-1.8-3.4-3.6-5.1-5.3c-0.6-0.6-1.3-1.1-2.2-0.7c-0.9,0.5-0.8,1.4-0.6,2.2
			c0.4,1.7,0.8,3.5,1.5,5.1c1.8,3.8,0.8,6.5-2.7,8.4c-0.7,0.4-1.4,0.9-2,1.4c-1.1,0.8-2.8,1.3-2.5,2.9c0.5,2,2.5,1.4,3.8,1.3
			c4.3-0.4,6.7,1.2,6.9,5.8c0.1,1.6,0.8,3.2,1.1,4.6c0.6,0.9,0.9,2,2.1,2c1.4,0,1.7-1.2,2-2.2c0.7-2.1,1.4-4.1,1.8-6.3
			c0.6-2.9,2.1-4.2,5.1-3.8c2.3,0.3,4.6,0.1,6.9,0c1,0,2-0.2,2.2-1.4C261.2,79.6,260.3,79.1,259.4,78.6z"/>
		<path class="st3" d="M341.8,93.1c3.7,0.8,5.4,2.7,4.3,6.6c-0.4,1.4-0.2,2.9-0.2,4.2c0.3,0.9,0.3,1.9,1.2,2.2
			c1.2,0.4,1.7-0.6,2.2-1.4c1.1-1.6,2.2-3.2,3.1-4.8c1.2-2.3,2.8-3,5.3-1.9c1.9,0.8,3.9,1.2,5.9,1.8c0.8,0.2,1.8,0.3,2.2-0.6
			c0.4-0.9-0.2-1.6-0.8-2.2c-0.4-0.4-0.9-0.8-1.4-1.1c-4.2-3.4-4.1-3.4-1.7-8.1c1-1.9,3.7-4.3,2.1-5.9c-1.7-1.7-4.1,0.9-5.9,2.1
			c-2,1.3-3.3,0.9-4.2-1.3c-0.9-2-1.9-3.9-3-5.8c-0.3-0.6-0.8-1.3-1.7-1.1c-0.9,0.2-1,1-1.1,1.7c-0.1,1.6-0.2,3.2,0,4.7
			c0.6,3.7-0.9,5.7-4.4,6.4c-0.7,0.2-1.4,0.4-2.1,0.6c-1.1,0.4-2.7,0.4-2.8,1.8C338.8,92.9,340.7,92.9,341.8,93.1z"/>
		<path class="st3" d="M164.4,71.1c-0.1-1-0.9-1.3-1.8-1.5c-0.6-0.1-1.2-0.2-1.8-0.3c-5.3-0.9-5.2-0.9-5.5-6.2
			c-0.1-2.2,1.1-5.6-1-6.2c-2.3-0.7-3.1,2.8-4.2,4.7c-1.1,2.1-2.4,2.4-4.3,1c-1.7-1.3-3.6-2.4-5.4-3.6c-0.6-0.4-1.3-0.7-2-0.1
			c-0.7,0.6-0.4,1.3-0.1,2c0.7,1.4,1.3,2.9,2.3,4.1c2.3,2.9,2,5.4-0.7,7.8c-0.5,0.5-1,1-1.5,1.6c-0.8,0.9-2.2,1.7-1.6,3
			c0.8,1.6,2.4,0.7,3.5,0.4c3.7-1.1,6-0.3,7,3.7c0.4,1.4,1.3,2.6,1.9,3.8c0.7,0.6,1.2,1.5,2.2,1.3c1.2-0.3,1.2-1.4,1.3-2.3
			c0.2-1.9,0.4-3.8,0.4-5.8c0-2.6,1-4,3.7-4.2c2-0.2,4-0.8,6-1.3C163.6,72.5,164.5,72.2,164.4,71.1z"/>
		<path class="st3" d="M124.5,350.2c-1.7,0.4-3.5,0.6-5,1.3c-3.8,1.6-6.4,0.6-8.1-3c-0.4-0.7-0.8-1.4-1.2-2.1
			c-0.7-1.1-1.1-2.8-2.7-2.5c-2,0.4-1.5,2.4-1.4,3.7c0.2,4.2-1.5,6.5-6,6.5c-1.6,0-3.1,0.6-4.6,0.9c-0.9,0.6-2,0.8-2,1.9
			c-0.1,1.4,1.1,1.7,2.1,2c2,0.7,4,1.5,6.1,2.1c2.8,0.7,4,2.2,3.5,5.2c-0.4,2.2-0.3,4.5-0.3,6.8c0,0.9,0.1,2,1.3,2.2
			c1.1,0.2,1.7-0.6,2.1-1.5c0.3-0.6,0.6-1.2,0.9-1.8c2.5-5.4,2.5-5.3,8.3-4.1c2.3,0.5,5.6,2.8,6.9,0.7c1.4-2.3-2.1-4.2-3.8-5.8
			c-2-1.8-1.8-3.3,0.2-4.9c1.9-1.5,3.6-3.1,5.4-4.8c0.6-0.5,1.2-1.2,0.7-2.1C126.2,350,125.3,350,124.5,350.2z"/>
		<path class="st3" d="M298.8,342.1c-0.6-0.1-1.2-0.2-1.8-0.3c-5.4-0.8-5.2-0.8-5.6-6.1c-0.2-2.1,1-5.6-1.2-6.2
			c-2.3-0.6-3.1,2.8-4.1,4.8c-1.1,2.2-2.4,2.4-4.3,1.1c-1.8-1.2-3.6-2.3-5.5-3.4c-0.6-0.4-1.3-0.7-2-0.1c-0.6,0.6-0.4,1.4-0.1,2
			c0.7,1.4,1.4,2.8,2.4,4c2.4,2.8,2.1,5.4-0.5,7.8c-0.5,0.5-1,1-1.5,1.6c-0.7,0.9-2.2,1.7-1.5,3c0.8,1.6,2.4,0.7,3.5,0.3
			c3.6-1.2,6-0.4,7.1,3.5c0.4,1.4,1.3,2.5,2,3.7c0.7,0.6,1.2,1.5,2.2,1.3c1.2-0.3,1.2-1.4,1.2-2.3c0.1-1.9,0.3-3.8,0.2-5.8
			c-0.1-2.6,0.9-4,3.6-4.3c2-0.2,4-0.9,5.9-1.5c0.8-0.2,1.7-0.6,1.6-1.7C300.5,342.6,299.6,342.3,298.8,342.1z"/>
		<path class="st3" d="M94.2,71.6c-0.6-0.1-1.2-0.2-1.8-0.3c-5.4-0.8-5.2-0.8-5.6-6.1c-0.2-2.1,1-5.6-1.2-6.2
			c-2.3-0.6-3.1,2.8-4.1,4.8c-1.1,2.2-2.4,2.4-4.3,1.1c-1.8-1.2-3.6-2.3-5.5-3.4c-0.6-0.4-1.3-0.7-2-0.1c-0.6,0.6-0.4,1.4-0.1,2
			c0.7,1.4,1.4,2.8,2.4,4c2.4,2.8,2.1,5.4-0.5,7.8c-0.5,0.5-1,1-1.5,1.6c-0.7,0.9-2.2,1.7-1.5,3c0.8,1.6,2.4,0.7,3.5,0.3
			c3.6-1.2,6-0.4,7.1,3.5c0.4,1.4,1.3,2.5,2,3.7c0.7,0.6,1.2,1.5,2.2,1.3c1.2-0.3,1.2-1.4,1.2-2.3c0.1-1.9,0.3-3.8,0.2-5.8
			c-0.1-2.6,0.9-4,3.6-4.3c2-0.2,4-0.9,5.9-1.5c0.8-0.2,1.7-0.6,1.6-1.7C96,72.1,95.1,71.8,94.2,71.6z"/>
		<path class="st3" d="M34.2,134c4.2-0.2,6.5,1.4,6.4,5.9c0,1.5,0.6,3.1,0.9,4.5c0.6,0.9,0.8,1.9,1.9,2c1.4,0.1,1.7-1.1,2-2.1
			c0.7-2,1.5-4,2-6c0.7-2.8,2.2-4,5.2-3.4c2.2,0.4,4.5,0.3,6.7,0.3c0.9,0,2-0.1,2.2-1.3c0.2-1.1-0.6-1.7-1.5-2.1
			c-0.6-0.3-1.2-0.6-1.8-0.8c-5.4-2.5-5.3-2.5-4.1-8.2c0.5-2.3,2.8-5.6,0.7-6.9c-2.2-1.4-4.1,2-5.8,3.8c-1.8,2-3.3,1.8-4.9-0.2
			c-1.5-1.9-3.1-3.6-4.7-5.3c-0.5-0.6-1.2-1.2-2.1-0.7c-0.9,0.4-0.9,1.3-0.7,2.1c0.4,1.7,0.6,3.4,1.3,5c1.6,3.8,0.6,6.3-3,8.1
			c-0.7,0.4-1.4,0.8-2,1.2c-1.1,0.7-2.8,1.1-2.5,2.7C30.9,134.6,32.9,134.1,34.2,134z"/>
		<path class="st3" d="M396,153.1c-2.4-0.8-2.8-2.1-1.7-4.2c1-2,1.9-4.1,2.7-6.1c0.3-0.7,0.5-1.5-0.2-2.1c-0.7-0.6-1.4-0.2-2,0.2
			c-1.3,1-2.7,1.8-3.8,3c-2.6,2.8-5.2,2.9-8.1,0.6c-0.6-0.5-1.2-0.9-1.8-1.3c-1-0.6-2.1-2-3.3-1.1c-1.5,1.1-0.3,2.6,0.2,3.7
			c1.8,3.5,1.3,6.1-2.6,7.8c-1.3,0.6-2.4,1.7-3.5,2.5c-0.5,0.8-1.3,1.4-1,2.4c0.5,1.2,1.6,1,2.6,0.9c2-0.2,4-0.2,5.9-0.6
			c2.7-0.5,4.2,0.3,4.9,3.1c0.5,2,1.5,3.9,2.3,5.9c0.4,0.8,0.9,1.6,1.9,1.4c1-0.2,1.2-1.2,1.2-2.1c0.1-0.6,0-1.2,0-1.9
			c0-5.6,0.1-5.5,5.4-6.6c2.2-0.5,5.9,0.2,6.1-2.1C401.7,154.1,398.1,153.8,396,153.1z"/>
		<path class="st3" d="M85.7,320.2c-1.6,0-3.2-0.2-4.7,0.1c-3.7,0.7-5.7-0.8-6.5-4.3c-0.2-0.7-0.4-1.4-0.7-2.1
			c-0.4-1.1-0.4-2.7-1.9-2.8c-1.8-0.1-1.8,1.8-2,2.9c-0.7,3.8-2.6,5.4-6.6,4.4c-1.4-0.3-2.9-0.1-4.2-0.1c-0.9,0.3-1.9,0.3-2.2,1.3
			c-0.4,1.2,0.6,1.7,1.4,2.2c1.6,1.1,3.2,2.2,4.9,3.1c2.3,1.2,3,2.7,2,5.3c-0.8,1.9-1.2,3.9-1.7,5.9c-0.2,0.8-0.3,1.8,0.7,2.2
			c0.9,0.4,1.6-0.2,2.2-0.8c0.4-0.4,0.7-0.9,1.1-1.4c3.3-4.3,3.3-4.2,8.1-1.9c1.9,0.9,4.4,3.6,5.9,2c1.7-1.7-0.9-4.1-2.2-5.9
			c-1.3-2-0.9-3.2,1.2-4.3c1.9-0.9,3.8-2,5.7-3.1c0.6-0.3,1.3-0.8,1.1-1.7C87.2,320.4,86.4,320.3,85.7,320.2z"/>
	</g>
</g>
</svg>
