<?xml version="1.0" encoding="utf-8"?>
<!-- Generator: Adobe Illustrator 23.0.1, SVG Export Plug-In . SVG Version: 6.00 Build 0)  -->
<svg version="1.1" id="Calque_1" xmlns="http://www.w3.org/2000/svg" xmlns:xlink="http://www.w3.org/1999/xlink" x="0px" y="0px"
	 viewBox="0 0 432 432" style="enable-background:new 0 0 432 432;" xml:space="preserve">
<style type="text/css">
	.st0{fill:#282828;}
	.st1{fill:#BF9C63;}
	.st2{fill:#C74E26;}
	.st3{fill:#036838;}
	.st4{fill:#9E1D28;}
	.st5{fill:#B3C66B;}
	.st6{fill:#C9678F;}
	.st7{fill:#6B4319;}
	.st8{fill:#DEAC57;}
	.st9{fill:#BF762C;}
	.st10{fill:#FBD66C;}
	.st11{fill:#B0BA87;}
	.st12{fill:#F29188;}
	.st13{fill:#746357;}
	.st14{fill:#7E8C66;}
	.st15{fill:#6493A8;}
	.st16{fill:#362317;}
	.st17{fill:#544841;}
	.st18{fill:#162640;}
	.st19{fill:#8FB368;}
	.st20{fill:#F2ACA5;}
	.st21{fill:#B68C57;}
	.st22{fill:#D5A8B2;}
	.st23{fill:#B6C8A3;}
	.st24{fill:#E0D8D1;}
	.st25{fill:#3C628E;}
	.st26{fill:#C7D2D8;}
	.st27{fill:#7D95B2;}
	.st28{fill:#B4B4B4;}
	.st29{fill:#9EAE87;}
	.st30{fill:#634E42;}
	.st31{fill:#EBCCD2;}
	.st32{fill:none;}
	.st33{fill:#C78140;}
	.st34{fill:#C69C6D;}
	.st35{fill:#A67C52;}
	.st36{fill:#A67D52;}
	.st37{fill:#827270;}
	.st38{fill:#499E49;}
	.st39{fill:#FBB959;}
	.st40{fill:#4D4D4D;}
	.st41{fill:#BA2314;}
	.st42{fill:#EB9BAB;}
	.st43{fill:#ABB9CE;}
	.st44{fill:#6595AA;}
	.st45{fill:#3E6689;}
	.st46{fill:#C0864D;}
	.st47{fill:#333333;}
	.st48{fill:#B5CCD8;}
	.st49{fill:#A6C882;}
	.st50{fill:#5E9581;}
	.st51{fill:#E3691E;}
	.st52{fill:#C75C1A;}
	.st53{fill:#DD852D;}
	.st54{fill:#A29E35;}
	.st55{fill:#AA4A3A;}
	.st56{fill:#C1272D;}
	.st57{fill:#E6E6E6;}
	.st58{fill:#FBB03B;}
	.st59{fill:#DFEBF2;}
	.st60{fill:#C0BA63;}
</style>
<g>
	<g>
		<g>
			<path class="st0" d="M100.858,100.281c14.248-1.23,33.421,7.381,30.958,24.808c-1.638,11.378-9.021,15.991-10.249,17.427
				c-0.205,0.205-0.205,0.512,0.102,0.614c2.355,1.128,7.789,2.564,10.352,10.252c2.053,5.945-1.945,12.096-7.175,15.479
				c-6.151,4.203-13.841,4.408-20.604,4.613c-1.846,0.102-6.151-0.923-6.871-4.817c-1.536-9.124-2.767-60.585-1.536-64.275
				C96.655,101.716,97.989,100.486,100.858,100.281z M104.754,124.885c0,16.402,0.205,15.377,1.433,14.863
				c3.384-1.23,6.768-2.665,9.638-4.817c5.946-4.306,9.328-13.121,4.715-18.759c-3.279-3.896-10.047-6.254-15.07-6.458
				c-1.126,0-0.819-0.102-0.819,15.172C104.652,124.885,104.652,124.885,104.754,124.885z M105.573,153.895
				c0.614,10.866,0.102,10.251,2.36,10.148c2.457-0.102,4.92-0.512,7.377-1.025c6.154-1.435,11.483-7.38,4.408-10.455
				c-3.791-1.743-7.892-2.562-12.095-2.666c-2.153-0.102-2.153,0-2.153,2.255c0,0.616,0,1.129,0,1.743H105.573z"/>
			<path class="st0" d="M170.874,106.021c0.205,2.358-0.819,4.203-2.767,5.024c-0.921,0.41-1.846,0.512-2.869,0.512
				c-16.813,0-15.274-0.614-15.479,2.564c-0.31,4.51-0.617,5.433,0.614,5.433c0.307-0.102,10.252-0.923,10.457-0.923
				c5.636,0.102,6.356,8.2,1.024,9.534c-1.843,0.41-3.691,0.512-11.173,1.025c-1.334,0.102-1.641,0-1.743,1.23
				c-0.102,0.614-0.614,13.224,0.717,26.037c0.719,7.279,0.208,7.381,2.258,7.279c5.329-0.614,8.304-1.128,9.225-1.025
				c5.022,0.513,6.049,7.484,1.024,9.329c-1.433,0.614-2.972,0.512-4.51,0.819c-6.97,1.025-14.555,1.641-15.991-5.74
				c-1.231-5.638-2.46-19.067-2.153-31.983c0.512-19.375,1.024-21.835,1.436-27.371c0.102-0.41,0.102-0.923,0.205-1.332
				c0.614-2.358,1.743-3.485,3.791-3.998c2.156-0.616,20.504-0.718,22.247-0.41C169.236,102.331,170.771,104.075,170.874,106.021z"
				/>
			<path class="st0" d="M179.385,106.124c1.334-6.15,10.252-4.613,9.123,1.641c-1.027,5.945-2.562,31.265-0.41,53.511
				c0.205,2.973,0.512,2.665,1.743,2.562c2.562-0.102,3.586-0.614,5.432,0.307c3.998,1.948,3.384,8.099-1.948,8.714
				c-6.151,0.82-11.89,1.846-13.531-4.202C176.925,158.098,177.335,115.76,179.385,106.124z"/>
			<path class="st0" d="M204.909,110.635c-1.126-4.614,2.872-7.997,6.461-6.767c5.739,1.948,3.896,10.559-1.951,10.354
				C207.269,114.223,205.423,112.684,204.909,110.635z M208.805,168.144c-1.536-10.455-2.457-18.247-3.074-44.798
				c0-1.332-0.617-6.765,4.306-6.97c8.304-0.411,2.46,14.147,7.994,50.333C219.261,174.704,209.934,176.139,208.805,168.144z"/>
			<path class="st0" d="M256.473,106.021c0.205,2.358-0.819,4.203-2.767,5.024c-0.921,0.41-1.846,0.512-2.869,0.512
				c-16.813,0-15.274-0.614-15.479,2.564c-0.31,4.51-0.617,5.433,0.614,5.433c0.307-0.102,10.252-0.923,10.457-0.923
				c5.636,0.102,6.356,8.2,1.024,9.534c-1.843,0.41-3.691,0.512-11.173,1.025c-1.334,0.102-1.641,0-1.743,1.23
				c-0.102,0.614-0.614,13.224,0.717,26.037c0.719,7.279,0.208,7.381,2.258,7.279c5.329-0.614,8.304-1.128,9.225-1.025
				c5.022,0.513,6.049,7.484,1.024,9.329c-1.433,0.614-2.972,0.512-4.51,0.819c-6.97,1.025-14.555,1.641-15.991-5.74
				c-1.231-5.638-2.46-19.067-2.153-31.983c0.512-19.375,1.024-21.835,1.436-27.371c0.102-0.41,0.102-0.923,0.205-1.332
				c0.614-2.358,1.743-3.485,3.791-3.998c2.156-0.616,20.504-0.718,22.247-0.41C254.835,102.331,256.371,104.075,256.473,106.021z"
				/>
			<path class="st0" d="M289.382,106.33c1.846-5.742,9.225-3.896,8.918,1.947c-0.102,1.539-8.714,52.588-11.276,60.79
				c-1.641,5.331-8.304,6.765-10.662-0.923c-7.073-22.245-15.274-59.251-15.274-60.686c0-4.717,7.482-7.484,9.433,0.614
				c7.482,31.471,1.945,9.739,10.044,41.517c0.205,0.513,0.205,1.128,0.921,1.539C287.024,120.373,288.665,108.585,289.382,106.33z"
				/>
			<path class="st0" d="M336.641,106.021c0.205,2.358-0.822,4.203-2.77,5.024c-0.921,0.41-1.843,0.512-2.869,0.512
				c-16.813,0-15.274-0.614-15.479,2.564c-0.307,4.51-0.614,5.433,0.614,5.433c0.307-0.102,10.252-0.923,10.457-0.923
				c5.639,0.102,6.356,8.2,1.027,9.534c-1.849,0.41-3.691,0.512-11.176,1.025c-1.331,0.102-1.638,0-1.74,1.23
				c-0.102,0.614-0.617,13.224,0.717,26.037c0.717,7.279,0.205,7.381,2.255,7.279c5.329-0.614,8.301-1.128,9.225-1.025
				c5.025,0.513,6.049,7.484,1.027,9.329c-1.436,0.614-2.975,0.512-4.51,0.819c-6.973,1.025-14.56,1.641-15.994-5.74
				c-1.229-5.638-2.46-19.067-2.153-31.983c0.515-19.375,1.027-21.835,1.436-27.371c0.102-0.41,0.102-0.923,0.205-1.332
				c0.614-2.358,1.74-3.485,3.794-3.998c2.15-0.616,20.501-0.718,22.245-0.41C334.997,102.331,336.539,104.075,336.641,106.021z"/>
		</g>
		<g>
			<path class="st0" d="M193.253,196.12c-0.791-3.241,2.017-5.616,4.538-4.752c4.03,1.368,2.736,7.416-1.37,7.272
				C194.911,198.64,193.615,197.559,193.253,196.12z M195.989,236.509c-1.079-7.343-1.726-12.815-2.159-31.462
				c0-0.936-0.433-4.751,3.024-4.895c5.832-0.289,1.728,9.935,5.614,35.35C203.333,241.116,196.782,242.124,195.989,236.509z"/>
			<path class="st0" d="M215.431,204.903c0.935-2.016,2.013-4.031,3.311-5.832c8.351-11.807,21.093-8.711,20.084,32.182
				c-0.144,6.336-0.431,6.768-1.079,7.632c-1.73,2.088-5.185,1.296-5.616-1.656c-0.144-0.864,0-1.656,0.288-7.847
				c0.359-9-1.294-22.967-3.743-27.646c-1.152-2.304-1.296-2.304-3.096-0.648c-9.575,9.143-8.64,34.773-8.928,36.429
				c-0.575,3.312-5.039,3.744-6.192,0.576c-0.288-0.864-3.311-41.469-3.024-44.061c0.431-3.672,6.12-4.248,6.479,1.008
				c0.216,3.456,0.431,6.912,0.647,10.368c0,0.216-0.072,0.431,0.218,0.647C215.213,205.839,215.285,205.335,215.431,204.903z"/>
		</g>
		<g>
			<path class="st0" d="M117.229,308.74c0.205,18.862,0.819,18.144,0.102,19.989c-1.539,4.408-7.383,3.896-8.611-0.102
				c-0.719-2.153-1.641-58.124-0.512-63.864c0.614-3.383,3.996-5.228,7.172-3.794c2.053,0.923,7.792,5.844,12.712,11.892
				c2.565,3.178,3.896,5.126,6.049,7.688c1.436-0.41,13.224-19.887,14.046-20.912c2.972-3.178,7.892-1.639,8.509,2.665
				c0.205,1.231,0.205,2.564,0.102,3.794c-0.924,22.04,1.024,59.047,1.024,59.047c-1.126,4.613-7.178,4.817-8.714,0.614
				c-1.743-4.817-1.846-45.105-1.846-46.232c-0.717-0.41-0.921,0.102-1.129,0.411c-5.534,8.303-6.251,9.43-7.275,10.66
				c-2.668,2.871-6.154,2.871-8.816,0c-0.208-0.205-7.485-10.046-10.972-13.94c-0.512-0.616-0.921-1.334-1.638-1.641
				C116.509,275.731,117.024,274.501,117.229,308.74z"/>
			<path class="st0" d="M186.528,271.426c-6.046,4.101-12.61,11.685-12.712,19.375c-0.102,7.277-11.071,7.893-8.918-3.998
				c2.565-14.351,20.299-34.854,34.752-22.963c3.691,2.973,7.792,9.123,10.147,20.296c3.794,17.736-0.41,43.465-0.819,44.49
				c-1.638,4.408-6.353,3.383-7.277,1.846c-1.129-1.641-1.641,0.205-7.994,0.923c-11.688,1.332-22.964-6.767-22.964-21.118
				c0-17.837,17.325-28.293,29.112-17.221c0.512,0.614,1.126,1.128,1.641,1.742C203.34,293.363,197.701,263.942,186.528,271.426z
				 M199.751,317.965c-0.205-1.844-0.921-13.736-6.97-17.939c-4.82-3.485-11.378,0.409-12.61,8.098
				c-1.641,10.047,7.38,16.608,18.761,11.482C199.547,319.299,199.854,318.786,199.751,317.965z"/>
			<path class="st0" d="M231.637,301.974c-4.306-0.205-7.69-2.05-10.047-5.433c-10.662-14.865,5.332-44.593,29.112-34.034
				c1.951,0.819,1.231,0.717,1.951,0.717c0.307-0.307,0.614-0.819,1.024-1.128c2.972-2.562,7.585-0.614,7.585,3.28
				c0,0-0.307,5.331-0.205,18.145c0,16.197,0.102,30.138-5.125,38.749c-5.127,8.202-14.046,10.559-20.501,9.124
				c-7.178-1.641-10.047-7.074-11.176-14.147c-1.126-7.586,8.816-7.791,9.123-2.153c0.102,1.435,0.41,2.869,0.924,4.306
				c0.924,2.562,2.46,3.587,5.23,3.383c12.504-0.82,12.504-19.273,12.095-33.624c0-0.205-0.102-0.307-0.31-0.616
				C246.396,295.823,241.374,302.486,231.637,301.974z M240.862,287.417c5.534-7.791,7.485-12.915,7.895-14.043
				c1.331-2.768-9.843-7.279-16.199-0.411c-6.766,7.279-6.561,19.989,0,20.093C236.044,293.158,238.812,290.287,240.862,287.417z"/>
			<path class="st0" d="M268.231,268.966c-1.126-4.614,2.872-7.997,6.461-6.767c5.739,1.948,3.896,10.559-1.951,10.354
				C270.591,272.553,268.746,271.015,268.231,268.966z M272.127,326.474c-1.536-10.455-2.457-18.247-3.074-44.798
				c0-1.332-0.617-6.766,4.306-6.97c8.304-0.411,2.46,14.147,7.994,50.333C282.584,333.035,273.256,334.469,272.127,326.474z"/>
			<path class="st0" d="M310.877,312.327c-0.614-3.895-0.512-4.92,0-6.15c1.641-3.487,6.359-3.589,8.202-0.309
				c1.024,1.948,1.948,9.739,0.717,15.479c-1.74,8.202-7.789,11.789-14.145,10.047c-12.2-3.487-18.553-24.911-17.018-44.49
				c1.948-25.013,18.863-30.856,29.115-21.528c5.534,5.126,7.892,14.351,5.841,21.425c-3.074,10.455-12.405,4.817-9.43-1.23
				c5.022-10.457-10.457-26.448-15.479-2.871c-3.279,15.581,1.436,32.394,7.175,38.237
				C310.98,326.167,311.594,316.53,310.877,312.327z"/>
		</g>
	</g>
	<g>
		<path class="st1" d="M163.539,241.257c-0.83-8.704-1.292-16.811-9.468-18.987c-1.996-0.531-3.729-0.745-3.568-1.977
			c0.081-0.616,0.583-1.014,1.496-1.102c11.022-1.06,10.017-12.843,11.154-18.081c0.293-1.347,1.755-1.17,2.013-0.173
			c0.623,2.408,0.705,5.842,1.28,9.414c1.24,7.71,6.277,7.611,10.743,8.452c0.785,0.148,1.442,0.12,1.545,0.988
			c0.319,2.696-9.634-0.415-11.899,9.437c-0.935,4.064-1.216,12.285-1.224,12.32C165.36,242.743,163.683,242.768,163.539,241.257z"
			/>
		<path class="st1" d="M287.328,248.006c-0.83-8.704-1.292-16.811-9.468-18.987c-1.996-0.531-3.729-0.745-3.568-1.977
			c0.081-0.616,0.583-1.014,1.496-1.102c11.022-1.06,10.017-12.843,11.154-18.081c0.293-1.347,1.755-1.17,2.013-0.173
			c0.623,2.408,0.705,5.842,1.28,9.414c1.24,7.71,6.277,7.611,10.743,8.452c0.785,0.148,1.442,0.12,1.545,0.988
			c0.319,2.696-9.634-0.415-11.899,9.437c-0.935,4.064-1.216,12.285-1.224,12.32C289.149,249.491,287.472,249.517,287.328,248.006z"
			/>
		<path class="st1" d="M261.911,220.12c-0.83-8.704-1.292-16.811-9.468-18.987c-1.996-0.531-3.729-0.745-3.568-1.977
			c0.081-0.616,0.583-1.014,1.496-1.102c11.022-1.06,10.017-12.843,11.154-18.081c0.293-1.347,1.755-1.17,2.013-0.173
			c0.623,2.408,0.705,5.842,1.28,9.414c1.24,7.71,6.277,7.611,10.743,8.452c0.785,0.148,1.442,0.12,1.545,0.988
			c0.319,2.696-9.634-0.415-11.899,9.437c-0.935,4.064-1.216,12.285-1.224,12.32C263.732,221.606,262.055,221.631,261.911,220.12z"
			/>
		<path class="st1" d="M135.737,226.868c-0.83-8.704-1.292-16.811-9.468-18.987c-1.996-0.531-3.729-0.745-3.568-1.977
			c0.081-0.616,0.583-1.014,1.496-1.102c11.022-1.06,10.017-12.843,11.154-18.081c0.293-1.347,1.755-1.17,2.013-0.173
			c0.623,2.408,0.705,5.842,1.28,9.414c1.24,7.71,6.277,7.611,10.743,8.452c0.785,0.148,1.442,0.12,1.545,0.988
			c0.319,2.696-9.634-0.415-11.899,9.437c-0.935,4.064-1.216,12.285-1.224,12.32C137.558,228.354,135.881,228.379,135.737,226.868z"
			/>
	</g>
</g>
</svg>
