<?xml version="1.0" encoding="utf-8"?>
<!-- Generator: Adobe Illustrator 20.1.0, SVG Export Plug-In . SVG Version: 6.00 Build 0)  -->
<svg version="1.1" id="Calque_1" xmlns="http://www.w3.org/2000/svg" xmlns:xlink="http://www.w3.org/1999/xlink" x="0px" y="0px"
	 viewBox="0 0 432 432" style="enable-background:new 0 0 432 432;" xml:space="preserve">
<style type="text/css">
	.st0{fill:#EF7B7E;}
	.st1{fill:#FFFFFF;}
	.st2{fill-rule:evenodd;clip-rule:evenodd;}
	.st3{fill:#CC7B26;}
	.st4{fill:#020203;}
	.st5{fill:#CB9A3E;}
	.st6{fill:#E30613;}
	.st7{fill:#D60B52;}
	.st8{fill:#F39200;}
	.st9{fill:#E94E1B;}
	.st10{fill:#F0D3AF;}
	.st11{fill:#F7D1B3;}
	.st12{fill:#E2BBA2;}
	.st13{fill:#F18C75;}
	.st14{fill:#F1CCAB;}
	.st15{fill:#EB5763;}
	.st16{fill:#E71D73;}
	.st17{fill:#C29347;}
</style>
<g>
	<path d="M261.9,192.8c-2.2-1.3-4.7-2.1-7.1-2.8c-0.3-0.1-0.7-0.2-1-0.3c1.2-3.6,2.2-7.2,2.5-11c0.4-4.6-1-11.7-7.1-10.9
		c-4.8,0.6-8.3,5.1-9.9,9.4c-0.9,2.4-0.9,5.1-0.2,7.5c0.7,2.3,2.2,4,4.1,5.3c1.6,1.1,3.4,1.8,5.3,2.4c-0.6,1.7-1.2,3.4-1.7,5.2
		c-1.2,3.7-2.3,7.4-3.5,11c-2.2,6.2-4.7,12.3-7.3,18.3c-1,2.3-2.1,4.7-3.4,6.8c-0.6,1-1.3,1.9-2.2,2.7c-0.2,0.2-0.8,0.7-0.7,0.6
		c-0.2,0.1-0.4,0.2-0.6,0.3c0,0,0,0,0,0c0,0-0.1,0-0.1-0.1c-0.1-0.1-0.3-0.2-0.2-0.1c-0.6-0.4-0.7-0.7-1.1-1.6
		c-0.7-1.6-0.9-3.9-1-5.9c-0.1-4.1,0.5-8.1,0.8-12.1c0.7-8.5,0.8-17.1,0.9-25.6c0.1-3.3,0.2-6.6,0.4-10c0.1-2.4,0.1-5.7-1.6-7.5
		c-0.9-1-4.7-0.6-3.9,1.2c0.2,0.4,0,1.6-0.1,2.2c-0.3,1.4-0.5,3-0.6,4.4c-0.2,3-0.5,6-0.6,8.9c-0.4,8.6-0.5,17.1-1.1,25.7
		c-0.3,4.2-1,8.3-0.9,12.5c0.1,4.6,1,9.4,5.5,11.1c2.4,0.9,5.3,0.6,7.4-0.9c1.7-1.2,3.1-3.4,4.3-5.4c2.5-4.3,4.3-9.2,6.1-13.8
		c3-7.4,5.4-14.9,7.9-22.5c0.4-1.4,0.9-2.7,1.4-4.1c1.3,0.4,2.5,0.8,3.6,1.3c5.6,2.6,9.8,7.8,12.2,13.4c0.4,0.8,0.7,1.7,0.9,2.5
		c-4.6,2.8-9.7,4.8-14,8.3c-4.1,3.3-7,7.4-8.2,12.6c-1,4.3-0.6,9.4,3.9,11.4c5.6,2.6,12,0.1,16.3-3.8c4-3.6,6.7-9,8.2-14.1
		c1.5-5,1.4-10.2-0.1-15.1c0.1-0.1,0.2-0.1,0.3-0.2c2.2-1.7,4.4-3.5,6.4-5.4c4.5-4.2,8.5-9.1,11.7-14.4c4.5-7.6,7.4-17.7,2.2-25.7
		c-0.6-0.9-3.4-0.7-2.9,0.6c2.1,5.4,2.3,11.2,0.5,16.7c-1.9,5.9-5.4,11.2-9.4,15.8c-3,3.5-6.3,6.7-9.8,9.6
		C271.9,201.3,267.5,196.1,261.9,192.8z M248.6,187.9c-1.8-0.8-3.1-2-4-3.9c-1-2.1-1.1-4.7-0.4-6.9c0.6-2.2,2-4.2,3.6-5.7
		c0.5-0.5,1.4-1,1.7-1.1c0.1,0,0.1,0,0.2,0c0.2,0.1,0.4,0.2,0.7,0.5c1.8,1.8,1.8,5.4,1.6,7.7c-0.2,3.3-1.1,6.6-2.1,9.8
		c0,0.1,0,0.1-0.1,0.2C249.4,188.3,249,188.1,248.6,187.9z M269.2,225.1c-1.5,4.9-4.1,9.9-8.1,13.2c-0.9,0.8-1.8,1.3-2.7,1.7
		c-0.3,0.1-0.5,0.2-0.8,0.3c0.5-0.2-0.4,0.1-0.4,0.1c0,0-0.5,0.1-0.6,0.1c-0.3,0-0.6,0-0.9,0c0.3,0-0.5-0.1-0.6-0.1
		c-0.1,0-0.2,0-0.2,0c0,0-0.1,0-0.2-0.1c-0.5-0.1-0.5-0.1-1.1-0.5c-0.5-0.3-1.2-1.1-1.5-1.9c-1.7-3.9-0.2-8.8,1.7-12.4
		c3-5.4,8.8-8.2,14-11c0.7-0.3,1.3-0.7,1.9-1C270.6,217.4,270.3,221.3,269.2,225.1z"/>
	<path d="M352.1,271.9c-0.5,0.9-1.2,1.7-1.7,2.6c-0.6,1.1-1.1,2.1-1.7,3.2c-1.3,2.2-2.7,4.4-4.2,6.4c-1.6,2.1-3.3,4.1-5.2,6
		c-0.8,0.8-1.7,1.5-2.6,2.2c-0.4,0.3-0.8,0.6-1.2,0.7c-0.3,0.1-0.5,0.2-0.8,0.3c-0.1,0.1-1,0.4-0.6,0.3c-0.5,0.1-1.1,0.2-1.6,0.3
		c-0.3,0-0.5,0.1-0.8,0.1c0,0,0,0,0,0c0,0,0,0,0,0c-0.2,0-1.2,0-1.2,0.1c-0.1,0-0.2,0-0.4,0c-0.1,0-0.2,0-0.3,0c0,0,0,0-0.1,0
		c-0.3-0.1-0.5-0.1-0.8-0.2c0,0-0.1,0-0.1,0c0,0-0.1,0-0.1-0.1c-0.5-0.2-1-0.5-1.5-0.8c-0.3-0.2-0.7-0.5-1.1-0.9
		c-0.6-0.5-1.1-1.1-1.6-1.7c-3.5-4.1-3.8-10.6-3.6-15.8c0.2-5.4,1.1-10.6,2.1-15.9c1-5.3,2.4-10.8,4.7-15.7c0.9-1.8,2.3-3.8,4.5-3.9
		c1.6-0.1,3.2,1.8,4.1,3c2.6,3.6,3.9,8.1,5.5,12.2c0.2,0.4,1.2,0.3,1.2-0.2c0.6-7.5-5.8-21.1-15.1-15.6c-5.4,3.2-8,8.7-9.8,14.4
		c-1.7,5.3-2.9,10.7-3.7,16.1c-0.4,2.9-0.7,5.9-0.6,8.9c-0.2,0.4-0.4,0.8-0.6,1.2c-1.1,2.3-2.3,4.5-3.6,6.7c-1.3,2.2-3,4.2-4.7,6.1
		c-1.5,1.6-3,3.2-4.8,4.4c-0.2,0.1-0.4,0.2-0.5,0.3c0.3-0.2-0.3,0.1-0.3,0.2c-0.2,0.1-0.4,0.2-0.6,0.3c0,0-0.1,0-0.1,0c0,0,0,0,0,0
		c-0.1,0-0.1,0-0.2,0.1c-0.1,0-0.2,0-0.3,0c0,0,0,0,0,0c0,0,0,0-0.1,0c0,0,0,0-0.1,0c0,0-0.1,0-0.1,0c-0.1-0.1-0.3-0.1-0.4-0.2
		c0,0,0,0,0,0c0,0-0.1,0-0.1-0.1c-0.2-0.1-0.3-0.3-0.5-0.4c-0.6-0.6-1.1-1.4-1.7-2.4c-2.6-4.2-2.8-9.8-2.6-14.7
		c0.2-6.1,1.2-12.2,2-18.2c0.4-2.8,0.7-5.7,1-8.6c0.2-2.4,0.1-5.1-1.1-7.3c-0.7-1.2-3.1-1-3.6,0.2c-1.1,2.3-1.4,4.9-1.7,7.4
		c-0.4,2.8-0.9,5.6-1.4,8.4c-0.9,5.3-1.9,10.7-2.3,16.1c-2.3,4.4-5.2,8.4-8.5,12c-2.8,3-5.8,5.8-8.9,8.4c0.1-4.1,0.2-8.2,0.1-12.3
		c0-3.6-0.3-7.2-0.6-10.7c-0.1-1.4-0.4-2.8-0.6-4.2c-0.2-1-0.8-1.9-0.8-2.8c0-1.6-3-1.2-3.7-0.4c-1.7,1.9-1.7,4.7-1.8,7.1
		c0,1.4,0,2.7,0,4.1c-0.4,1.1-0.8,2.3-1.2,3.4c-1.3,3.1-2.6,6.1-4.7,8.8c-1.8,2.4-4.5,4.8-7.1,6.1c-0.3,0.1-0.6,0.3-0.9,0.4
		c0,0-0.6,0.2-0.6,0.2c-0.2,0.1-0.4,0.1-0.6,0.2c-0.1,0-0.2,0-0.3,0c-0.1,0-0.2,0-0.3,0c-0.1,0-0.3-0.1-0.4-0.1
		c-0.1,0-0.2-0.1-0.3-0.1c0,0,0,0-0.1,0c-0.2-0.1-0.3-0.2-0.5-0.3c0.2,0.1-0.3-0.2-0.3-0.3c-0.2-0.2-0.4-0.3-0.5-0.5
		c0,0-0.3-0.4-0.3-0.4c-0.7-1-1.2-2.2-1.6-3.3c-0.8-2.7-0.9-5.7-0.8-8.5c0.1-5.9,1.5-11.8,3.8-17.2c2-4.7,5.1-9.1,9.6-11.8
		c0.1,0,0.5-0.2,0.5-0.2c0.2-0.1,0.5-0.2,0.7-0.3c0.5-0.2,1-0.4,1.5-0.6c0,0,0.4-0.1,0.5-0.2c0.2-0.1,0.4-0.1,0.6-0.1
		c0.2-0.1,0.5-0.1,0.7-0.1c0,0,0,0,0.1,0c0,0,0.1,0,0.2,0c0.4,0,1.1,0,1.8,0.5c1,0.8,1.4,2,1.7,3.1c0.1,0.6,1.4,0.5,1.5-0.1
		c0.4-2.3,0.1-4.2-1.9-5.6c-2-1.4-5-1.1-7.3-0.7c-5.5,1.1-10.2,5.1-13.4,9.5c-3.6,5-5.7,11-6.8,17c-0.1,0.6-0.2,1.1-0.3,1.7
		c-4.1,1.9-7.2,5.9-9.5,9.6c-2.9,4.7-5.4,9.4-10.2,12.4c0-0.1,0-0.1-0.1-0.2c0-0.1-0.1-0.2-0.1-0.3c0.1,0.2-0.1-0.3-0.1-0.4
		c-0.2-1-0.3-2-0.4-3c-0.2-2.1-0.1-4.3-0.1-6.4c0.1-2.7,0-5.4,0.1-8c0.1-3,0.2-6,0-9c-0.1-1.5-0.2-3-0.4-4.5c-0.2-1.7-1-3.2-1.4-4.8
		c-0.4-1.5-3.9-1.5-3.9,0.2c0,2-0.5,4-0.7,6c-0.2,2.2-0.4,4.3-0.5,6.5c-0.1,1.8-0.2,3.7-0.3,5.5c-0.8,2.9-1.9,5.6-3,8.4
		c-0.9,2.4-1.8,4.8-3.3,6.9c-0.4,0.5-0.8,0.9-1.2,1.3c-0.2,0.2-0.7,0.4-0.8,0.5c0,0,0,0,0,0c0,0-0.2,0-0.3,0c0,0-0.2,0-0.3,0
		c-0.1,0-0.6-0.1-0.7-0.2c-0.1,0-0.3-0.1-0.4-0.1c-0.2-0.1-0.3-0.2-0.5-0.3c-0.1,0-0.1-0.1-0.1-0.1c0,0-0.1,0-0.1-0.1
		c-0.2-0.1-0.4-0.3-0.5-0.5c-0.7-0.7-1-1.2-1.6-2.3c-1-2-1.3-4-1.6-6.2c-0.5-4.3-0.2-8.8-0.1-13.1c0.2-5.4,1.4-11.2,4.8-15.6
		c0.7-0.9,1.4-1.6,2.3-2.2c4.1-1.8,8.6-2.7,13.1-2.9c0.7,0,1.7-0.3,2-1.1c0.4-0.9-0.9-1.5-1.6-1.5c-5.8-0.5-11.7,0.3-16.6,3.6
		c-0.2,0.1-0.3,0.2-0.5,0.4c-0.2,0.1-0.4,0.2-0.7,0.3c-4.4,2.3-8.1,5.6-10.9,9.6c-6,8.5-8.1,19.2-9.9,29.2c-0.5,2.8-0.7,5.7-1.8,8.2
		c0-0.1-0.1-0.1-0.1-0.2c-4-6-5.9-13.1-6.8-20.2c-1-7.9-1.3-15.8-1.8-23.7c-0.3-4.3-0.5-8.7-0.9-13c-0.4-4.1-1.1-8.2-1.4-12.3
		c-0.3-4.9-0.3-10.1-2.5-14.7c-0.9-1.9-4.3-1.2-5.1,0.3c-6.8,11.1-8.5,24.3-10.1,37c-0.9,7.1-1.6,14.1-2.1,21.2
		c-0.2,2.7-0.4,5.4-0.6,8.1c-0.1-1.4-0.1-2.7-0.2-4c-0.4-8.2-1.5-16.3-2.3-24.5c-0.7-7.4-1.1-14.7-1.7-22.1
		c-0.3-3.6-0.7-7.3-1.3-10.8c-0.6-3.4-1.8-6.8-3.1-9.9c-0.3-0.6-0.5-1.2-0.8-1.8c-0.5-1.1-2.4-0.9-3.2-0.3
		c-4.2,2.5-6.2,8.1-7.8,12.4c-0.9,2.5-1.7,5-2.4,7.6c-0.9,3.1-2,6.2-2.8,9.3c-2.3,8.2-3,16.5-4.1,24.9c-0.1,0.7-0.2,1.4-0.3,2.2
		c-0.2-3.3-0.5-6.7-0.8-10c-0.3-3.1-0.7-6.3-0.8-9.4c-0.2-3.1-0.4-6.3-1-9.3c-1-4.5-1.7-10.2-5.7-13.1c-6.4-4.5-13.2,3.5-16.4,8.2
		c-2.3,3.4-4.3,7-5.9,10.8c-1.1,2.7-2.2,5.9-1.9,8.9c0.1,0.5,1.1,0.4,1.1-0.1c0.1-1.5,0.5-2.9,1.1-4.3c0.7-1.9,1.5-3.7,2.4-5.5
		c2-4.1,4.5-8,7.4-11.4c1.3-1.5,2.7-2.9,4.2-4.1c0.6-0.4,1.2-0.8,1.9-1.2c0.7-0.3,1.2-0.4,1.6-0.5c0.4,0,0.6,0,0.9,0.2
		c0.5,0.3,1,0.7,1.4,1.3c1.3,2,1.8,4.4,2.1,6.7c0.6,4.9,0.1,9.8,0.3,14.7c0.2,6,0.9,12,1.2,18.1c0.3,7,0.6,14,0.9,20.9
		c0.2,6.2-0.5,12.9,1.1,19c0,0,0,0,0,0c0,0,0,0,0,0c0,0.2,0.1,0.3,0.1,0.5c0.6,2.2,6.6,1.6,6.3-0.9c0-3.6-0.4-7.3-0.5-11
		c0-0.6,0-1.3,0.1-1.9c0.2-4.2,0.4-8.5,0.9-12.7c1-8.5,2.1-17,3.2-25.5c0.5-4.3,1.3-8.5,2.3-12.7c0.8-3.6,2.1-7,3-10.5
		c1.4-5.1,2.9-10.4,5.4-15.1c0.5-1,1.2-2.1,2-3.1c0.6,2.5,0.9,5,1.2,7.6c0.3,3.6,0.7,7.2,0.9,10.8c0.4,7.3,0.4,14.6,1,21.9
		c0.8,8.3,1.9,16.6,2.3,24.9c0.3,6.6,0.5,13.7,3.5,19.7c0.3,0.6,0.6,1.1,0.9,1.6c0.6,1,1.8,1.2,2.9,1.2c0.8,0,2.6-0.4,2.8-1.5
		c1.6-7.7,2.4-15.3,2.9-23.2c0.4-7.2,1-14.4,1.8-21.6c0.7-6.4,1.4-12.8,2.8-19.1c0.8-3.7,1.8-7.5,3.3-11.1c0.1,1.2,0.1,2.5,0.1,3.7
		c0,1.7,0.1,3.4,0.1,5.1c0,2.1,0.5,4.4,0.7,6.5c0.8,8.6,0.8,17.3,1.4,26c0.5,7.5,0.9,15.1,2.7,22.4c0.9,3.6,2.2,7.1,3.9,10.4
		c1.3,2.5,3,5.1,5.5,6.6c2.6,1.5,6.5,0.7,7.7-2.1c0.6-1.3,0.4-2.8,0.7-4.2c0.3-1.4,0.5-2.9,0.7-4.3c0.9-5.4,1.9-10.7,3.4-16
		c1.3-4.5,3-9,5.5-12.9c-1.4,4.4-1.7,9.2-1.9,13.8c-0.3,4.5,0.1,9.5,1.9,13.7c1.6,3.5,4.7,5.7,8.4,6.3c4.5,0.7,8.3-1.5,10.5-5.2
		c0.1,0.7,0.2,1.4,0.3,2c0.4,2,1.2,3.8,3.1,4.8c2.7,1.5,6,0.8,8.5-0.6c4.9-2.7,7.6-8.1,9.8-13c1.1-2.4,2.2-4.9,3.7-7
		c0.6-0.9,1.3-1.6,2.1-2.4c-0.4,4.3-0.3,8.7,1.2,12.7c1.3,3.6,4.2,6,8,6.7c4.3,0.8,8.7-1.3,12.1-3.8c2.4-1.8,4.4-3.9,6-6.3
		c-0.1,4.1-0.3,8.3-0.5,12.4c-3.2,2.4-6.4,4.7-9.6,7.1c-4.5,3.4-8.9,6.9-13.1,10.7c-4.3,3.9-8.3,8.3-11.4,13.2
		c-2.9,4.6-4.8,9.8-4.9,15.3c0,5.4,1.9,11.7,6.6,14.8c4.6,3,10.7,2.3,15.5,0.1c4.9-2.3,8.8-6.1,11.8-10.6
		c8.5-12.9,11.2-29,12.5-44.1c0.3-3.4,0.5-6.8,0.7-10.2c6.5-5.2,12.5-10.9,17.1-17.8c0.1-0.1,0.1-0.2,0.2-0.3
		c0,4.4,0.5,8.9,2.7,12.8c2.5,4.3,7.3,6.9,12.3,5.5c5.6-1.6,9.3-6.6,12.2-11.3c0.9-1.5,1.7-2.9,2.5-4.4c0.2,0.7,0.3,1.4,0.6,2.1
		c1.6,5.3,5.9,9.9,11.4,11.2c2.9,0.7,6.1,0.7,8.9-0.5c0.2-0.1,1.4-0.7,0.7-0.3c0.4-0.2,0.7-0.4,1-0.6c0.1,0,0.1-0.1,0.2-0.1
		c-0.4,0.1-0.2,0,0.4-0.3c0.2-0.1,0.5-0.3,0.7-0.4c1-0.6,1.9-1.4,2.9-2.1c4.1-3.3,7.4-7.6,10-12.2c0.9-1.6,1.8-3.2,2.5-4.9
		c0.7-1.5,1-3,1.2-4.6C355,270.8,352.5,271.2,352.1,271.9z M197.3,299.8C197.3,299.8,197.3,299.8,197.3,299.8c-0.1,0-0.1,0-0.2,0.1
		C197.2,299.8,197.2,299.8,197.3,299.8z M214,301.9C214,301.9,213.9,301.9,214,301.9C214.2,302,214.1,302,214,301.9z M214.1,302
		C214.4,302.2,214.2,302.1,214.1,302L214.1,302z M259,311c-1.1,14.8-3.5,30.5-11.6,43c-1.3,2-3.1,4-4.7,5.3
		c-0.9,0.8-1.9,1.5-2.9,2.1c-0.2,0.1-0.4,0.2-0.6,0.4c0.1-0.1-0.5,0.2-0.5,0.2c-0.6,0.3-1.2,0.5-1.8,0.7c0,0-0.1,0-0.1,0
		c0,0-0.1,0-0.2,0.1c-0.3,0.1-0.5,0.1-0.8,0.2c-0.2,0-0.3,0.1-0.5,0.1c0.3-0.1-0.3,0-0.5,0c-0.2,0-0.3,0-0.5,0c0.3,0-0.3,0-0.5,0
		c-0.1,0-0.4-0.1-0.5-0.1c-0.3-0.1-0.5-0.1-0.7-0.2c-0.1,0-0.1,0-0.1,0c0,0-0.1,0-0.2-0.1c-0.2-0.1-0.5-0.2-0.7-0.4
		c-0.5-0.3-0.7-0.4-1.1-0.8c-1-0.9-1.8-1.9-2.5-3.1c-2.8-4.7-3.1-10.6-1.7-15.8c1.4-5.4,4.5-10,7.9-14.4c3.6-4.5,8-8.5,12.4-12.1
		c4-3.3,8.2-6.5,12.4-9.5c0.1,0,0.1-0.1,0.2-0.1C259.2,308,259.1,309.5,259,311z M297.4,297C297.4,297,297.3,296.9,297.4,297
		L297.4,297z"/>
	<path class="st3" d="M154.4,187.7c-0.6-1.4-5.1,0.4-6.5-0.1c-2-0.7-2.4-4-4-4.3c-0.5-0.1-1.4,5.2-2.6,5.6c-1.5,0.4-3.6,0-4.8,1.2
		c1.2,2.1,3.4,1.9,4.9,3.5c0.7,0.8,0.5,1.4,0.4,2.6c-0.2,1.5-0.7,4,1.3,4c2.1,0,3-3.1,5.1-3.2c1.2,0,2.1,1.7,3.4,1.7
		c0.8,0,1.1-0.3,1.2-0.8c0.2-1-0.9-2.6-1.2-3.4C150.5,191.7,155.4,190.1,154.4,187.7z"/>
	<path class="st3" d="M261.4,142.3c0.3,2.1,3.5,2.5,3.9,4.5c0.2,1.2-1.3,2.4-1.1,3.6c0.2,0.8,0.5,1,1,1c1,0,2.4-1.3,3.1-1.7
		c2.6-1.5,5,3.1,7.2,1.7c1.3-0.8-1.2-5-1-6.4c0.4-2.1,3.5-3,3.6-4.7c0-0.5-5.4-0.5-6-1.7c-0.7-1.4-0.6-3.6-2-4.5
		c-1.9,1.5-1.3,3.7-2.7,5.4c-0.6,0.8-1.3,0.8-2.5,0.8C263.7,140.5,261.1,140.3,261.4,142.3z"/>
	<path class="st3" d="M293.6,315c-3.1-0.7-1.7-5.9-4.4-6.4c-1.6-0.3-2.6,4.7-3.8,5.6c-1.7,1.3-4.8-0.2-6.1,1.1
		c-0.4,0.4,3.8,4.2,3.4,5.5c-0.5,1.6-2.1,3.1-1.6,4.8c2.5,0.2,3.6-1.9,5.9-2.3c1.1-0.2,1.5,0.3,2.5,1.1c1.2,1,3.1,2.9,4.2,1.2
		c1.2-1.9-1-4.4,0.2-6.2c0.6-1,2.7-0.9,3.4-2c0.4-0.7,0.3-1.2,0-1.5C296.5,315.2,294.5,315.2,293.6,315z"/>
	<path d="M293,229.4c-1.5,1-1.9,2.4-2.2,4c-0.1,0.8-0.5,1.9-0.1,2.7c0.5,0.9,1.5,1.4,2.5,1.6c2.1,0.2,3.9-1.2,4.1-3.2
		c0.1-1.5,0.7-3.1,0.1-4.5C296.9,228.4,294,228.8,293,229.4z"/>
	<path d="M95.2,120.3c6.4-4.1,13.4-7.3,19.2-12.3c0.2-0.1,0.3-0.3,0.5-0.4c0.6,4,1.4,8,2.1,11.9c0.7,4.1,1.7,8.2,2.5,12.3
		c0.8,4.1,1.5,8.3,2.2,12.5c0.4,2.7,0.8,5.4,1.1,8.1c-1.7,1.5-3.4,3-5.2,4.5c-5.3,4.5-10.4,9.2-14.1,15.2c-2.6,4.2-3.6,8.9-4.1,13.7
		c-0.4,4.7-0.2,9.7,1.7,14c1.9,4.4,6,6.5,10.7,6.6c4.1,0.1,7.6-2.3,9.9-5.4c2.5-3.5,4-7.7,5.1-11.8c1.1-4.2,1.9-8.6,2.4-12.9
		c1-8.3,0.9-17,0-25.6c0.7-0.7,1.4-1.3,2-2c4-4.1,7.7-8.3,10.9-13c1.5-2.1,2.8-4.2,4.1-6.5c0.1,6.3,0.6,12.6,1.6,18.8
		c0.6,4,1.6,8,3,11.8c1.1,2.9,2.6,5.9,5,8c2.8,2.5,6.3,3.2,9.9,2.7c5-0.7,9.1-4.4,12.2-8.1c3-3.6,5.4-7.7,7.6-11.8c0,0,0,0,0-0.1
		c0.3,1.2,0.5,2.4,0.8,3.6c0.2,1,0.4,1.9,0.7,2.9c-0.2,0.3-0.3,0.6-0.5,0.9c-8,13.6-13.9,28.5-16.1,44.2c-1.4,10.1-1.4,21.9,3.8,31
		c2.4,4.2,6.5,7.5,11.5,7.9c4.6,0.4,8.3-2.3,10.6-6c2.5-4,4-8.5,5.1-13c1-4.2,1.8-8.1,1.9-12.4c0.7-16.6-4.4-32.5-8.2-48.4
		c-0.6-2.4-1.1-4.8-1.6-7.2c0,0,0,0,0-0.1c3.1-5,6.8-9.5,10.5-14c0.1,1.2,0.2,2.3,0.3,3.5c0.4,4.3,1.1,8.1,2.8,11.9
		c0.7,1.6,1.6,3,2.8,4.3c0.2,0.3,0.5,0.5,0.7,0.7c0.2,0.2,0.4,0.3,0.6,0.5c0.1,0,0.1,0.1,0.2,0.1c0.9,0.6,1.7,1.1,2.8,1.4
		c2,0.7,4.1,0.6,6.1,0.2c2.3-0.5,4.1-1.9,5.6-3.5c3-3,4.8-7.3,6.5-11.2c1.7-3.8,3.1-7.8,5.1-11.5c2.2-4.3,6.3-8.1,10.5-10.8
		c4.5-2.9,10.7-5.1,16-3.4c0.7,0.2,1.8,0.1,2.3-0.5c0.5-0.6-0.1-1.2-0.7-1.4c-3.2-1-6.4-1.5-9.8-1.1c-3.5,0.4-6.9,1.8-9.9,3.6
		c-5.2,2.9-10.2,7.6-13,12.9c-2.3,4.3-3.9,9.1-6,13.5c-1.1,2.3-2.3,4.5-3.8,6.5c-0.6,0.9-1.3,1.7-2.1,2.4c-0.6,0.6-1.1,0.8-1.8,1.1
		c0.2-0.1-0.3,0.1-0.4,0.1c0,0,0,0,0,0c-0.2,0-0.4,0-0.5,0c-0.1,0-0.3,0-0.4,0c-0.1,0-0.3-0.1-0.4-0.1c0,0,0,0-0.1,0c0,0,0,0,0,0
		c-0.3-0.1-0.6-0.3-0.8-0.5c0,0,0,0,0,0c-0.1-0.1-0.2-0.2-0.3-0.3c-0.2-0.2-0.5-0.5-0.7-0.7c0,0-0.1-0.1-0.2-0.2
		c-0.1-0.1-0.2-0.3-0.3-0.5c-2-3.1-2.6-6.4-3.2-10c-0.8-5-1-10.2-0.9-15.3c6.2-7.8,11.9-16.2,13.5-26c0.5-2.9,0.5-6-0.6-8.7
		c-1.1-2.6-3.8-3.2-6.4-2.8c-2.9,0.4-5.4,2.8-7.1,5.1c-1.8,2.5-2.9,5.5-3.7,8.4c-2.1,7.3-2.5,15.3-2.7,22.9c0,1.3-0.1,2.6,0,3.8
		c-2,2.5-4,4.9-6,7.4c-1.9,2.4-3.7,4.7-5.4,7.2c-0.8-3.9-1.6-7.8-2.5-11.7c0.8-2.8,1.5-5.6,2.1-8.4c2.5-11.3,3.6-23.1,2.7-34.7
		c-0.4-5.5-1.5-11.1-3.4-16.3c-1.7-4.6-4.5-9.3-8.6-12.1c-1.8-1.2-4.3-1.5-6.2-0.3c-1.4,0.8-2,2.4-2.4,3.9c-1,3.9-0.9,7.9-0.9,11.9
		c0,8,0.6,15.7,2.2,23.5c1.6,8.3,3.8,16.5,5.7,24.7c1,4.3,2,8.7,2.9,13.1c-0.7,2-1.5,4.1-2.4,6c-2.3,5.2-5.4,10.2-9.4,14.2
		c-1.2,1.1-2.4,2-3.8,2.8c-0.3,0.2-0.8,0.4-1.3,0.6c-0.3,0.1-0.5,0.2-0.8,0.3c0,0-0.1,0-0.1,0c0,0-0.1,0-0.2,0.1
		c-0.2,0-0.9,0.2-1.1,0.2c-0.1,0-0.1,0-0.2,0c-0.1,0-0.2,0-0.4,0c-0.2-0.1-0.3-0.2-0.5-0.3c-2.1-1.5-3.2-4.1-4.1-6.5
		c-1.5-3.8-2.2-7.9-2.9-11.8c-0.9-4.7-1.4-9.5-1.8-14.3c-0.8-9.8-0.8-19.6-0.8-29.4c0-0.6-0.5-1-1.2-1.2c0-0.1-0.1-0.2-0.1-0.2
		c-0.5-1.2-2.7-0.8-3.4-0.1c-0.8,0.9-1.3,1.8-1.6,3c-0.5,1.7-0.7,3-0.9,4.5c-0.3,3.1-0.5,6.2-0.6,9.4c-3,8.3-7.9,15.9-13.7,22.6
		c-1.3,1.5-2.6,2.9-3.9,4.2c-0.4-3.4-0.9-6.9-1.5-10.3c-1.9-11.6-4.9-23.2-6.5-34.9c1.8-2.1,3.5-4.2,5-6.4c3.3-4.5,6.1-9.7,6.9-15.3
		c0.7-5.5-2.1-10.7-6.9-13.3c-2.3-1.3-5.5-0.6-7.4,1.1c-1.6,1.5-2.4,3.7-3,5.7c-1.9,6.6-2.3,13.8-2.1,20.6c0.1,3.5,0.5,6.9,1,10.3
		c-1.9,1.9-3.9,3.7-6,5.4c-4.5,3.5-9.3,6.5-13.6,10.1C94.3,120.3,95,120.5,95.2,120.3z M212.3,112.8c0.5-2.9,1-5.8,1.9-8.6
		c0.8-2.5,2-5.1,4.1-6.7c0,0,0.1-0.1,0.2-0.1c0.6,0.7,0.8,1.8,0.9,2.7c0.5,3,0.1,6.1-0.7,9c-1.5,5.6-4.4,10.7-7.7,15.5
		c0-0.8,0.1-1.5,0.1-2.3C211.5,119.1,211.8,116,212.3,112.8z M192.3,178.6c1.9,7.9,3.3,15.9,3.9,24c0.4,5.3,0.6,10.5-0.2,15.7
		c-0.7,4.4-1.8,8.9-3.6,13c-0.8,1.8-1.7,3.5-3.1,5c-0.6,0.6-0.8,0.9-1.7,1.4c0.5-0.3-0.7,0.2-0.5,0.2c-0.1,0-0.1,0-0.2,0
		c0.2,0-0.1,0-0.3,0c0,0-0.8-0.1-1-0.1c-0.2,0-0.9-0.3-1.3-0.4c-0.8-0.3-1.8-1-2.5-1.6c-1.8-1.5-3-3.5-4-5.5
		c-2.2-4.5-3-9.5-3.4-14.4c-1.1-13.9,2.7-28.1,8-40.8c1.7-4.2,3.6-8.2,5.8-12.2C189.6,168.2,191.1,173.4,192.3,178.6z M179.6,67.5
		C179.6,67.5,179.6,67.5,179.6,67.5C179.7,67.5,179.7,67.4,179.6,67.5C179.7,67.4,179.7,67.5,179.6,67.5z M183.6,111.9
		c-3-12.9-5-25.9-5-39.2c0-1.6,0-3.2,0.6-4.7c0.2,0.1,0.3,0.2,0.4,0.3c3.9,3.1,6.3,8,7.8,12.6c3.7,10.9,3.5,23.3,2.3,34.6
		c-0.5,4.4-1.2,8.8-2.1,13.1C186.4,123.1,184.9,117.5,183.6,111.9z M123,180.3c-0.5,4.3-1.3,8.7-2.6,12.8c-1.1,3.5-2.9,7.4-5.7,9.4
		c-0.2,0.1-0.3,0.2-0.5,0.3c0,0-0.2,0.1-0.3,0.2c-0.2,0.1-0.7,0.3-0.7,0.3c-0.3,0.1-0.8,0.2-0.8,0.2c-0.1,0-0.3,0-0.4,0
		c-0.1,0-0.2,0-0.3,0c0,0,0,0-0.1,0c-1.6-0.1-3-0.7-4.3-2.1c-2.9-3.2-3.2-8.5-3.2-12.5c0-4.3,0.6-8.8,2.3-12.8
		c2.7-6.4,7.6-11.4,12.7-16c1.3-1.2,2.6-2.4,4-3.5C123.8,164.5,124,172.4,123,180.3z M120.5,76.3c0.3-2.1,0.8-4.3,1.9-6.2
		c0.1-0.2,0.4-0.5,0.6-0.7c0,0,0,0,0,0c0,0,0,0,0,0c0.4,0.2,1,0.6,1.4,0.9c2.1,1.7,3.7,4,4.3,6.7c0.8,4.1-0.6,8.2-2.4,11.7
		c-1.6,3.3-3.7,6.3-6,9.1c-0.4-3.8-0.7-7.7-0.6-11.5C119.7,82.9,120,79.6,120.5,76.3z"/>
	<path d="M211.3,161.2c0,0-0.1-0.1-0.1-0.1C211,161,210.9,161,211.3,161.2z"/>
	<path d="M148.2,98.5c0.3,0.1,0.5,0.3,0.8,0.4c1.3,0.7,4.3,0.7,4.9-1.1c0.4-1,0.6-1.9,0.7-3c0.1-0.6,0.2-1.1,0-1.7
		c-0.3-0.9-1.3-1.4-2.2-1.5c-1-0.1-1.8,0.2-2.6,0.7c-0.2,0.1-0.3,0.2-0.5,0.4c0,0-0.1,0-0.1,0.1c-1.6,0.9-1.8,2.8-1.9,4.5
		C147.2,97.8,147.7,98.3,148.2,98.5z"/>
	<path d="M227.6,167.3c-0.3-0.5-0.8-0.8-1.3-0.9c-1.2-0.4-2.9-0.2-3.8,0.8c0,0.1-0.1,0.1-0.1,0.2c-0.1,0.1-0.2,0.2-0.2,0.4
		c0,0,0,0.1,0,0.1c0,0,0,0,0,0c0,0.1-0.1,0.2-0.1,0.3c0,0.1-0.1,0.2-0.1,0.3c-0.1,0.2-0.1,0.5-0.1,0.7c0,0.2,0,0.4,0,0.6
		c0,0,0,0,0,0.1c0,0,0,0,0,0.1c0,0,0,0.1,0,0.1c0,0,0,0.1,0,0.1c0,0,0,0,0,0.1c0,0,0,0.1,0.1,0.1c0,0,0,0,0,0c0,0,0.1,0.1,0.1,0.1
		c0,0,0,0,0,0c0,0,0.1,0.1,0.1,0.1c0,0,0,0,0,0c0,0,0,0,0.1,0.1c0.5,0.4,1.1,0.6,1.7,0.7c0.7,0.1,1.5,0,2.1-0.3
		c0.4-0.2,1.1-0.6,1.2-1.1c0.2-0.1,0.3-0.3,0.5-0.4c0.3-0.4,0.4-0.8,0.2-1.2c0-0.2-0.1-0.3-0.3-0.4
		C227.7,167.6,227.6,167.5,227.6,167.3z"/>
</g>
</svg>
